<?xml version="1.0" encoding="utf-8" standalone="no"?>
<!DOCTYPE svg PUBLIC "-//W3C//DTD SVG 1.1//EN"
  "http://www.w3.org/Graphics/SVG/1.1/DTD/svg11.dtd">
<svg height="360pt" version="1.1" viewBox="0 0 648 360" width="648pt" xmlns="http://www.w3.org/2000/svg" xmlns:xlink="http://www.w3.org/1999/xlink">
 <metadata>
  <rdf:RDF xmlns:cc="http://creativecommons.org/ns#" xmlns:dc="http://purl.org/dc/elements/1.1/" xmlns:rdf="http://www.w3.org/1999/02/22-rdf-syntax-ns#">
   <cc:Work>
    <dc:type rdf:resource="http://purl.org/dc/dcmitype/StillImage"/>
    <dc:date>2021-10-17T20:34:31.999523</dc:date>
    <dc:format>image/svg+xml</dc:format>
    <dc:creator>
     <cc:Agent>
      <dc:title>Matplotlib v3.4.3, https://matplotlib.org/</dc:title>
     </cc:Agent>
    </dc:creator>
   </cc:Work>
  </rdf:RDF>
 </metadata>
 <defs>
  <style type="text/css">*{stroke-linecap:butt;stroke-linejoin:round;}</style>
 </defs>
 <g id="figure_1">
  <g id="patch_1">
   <path d="M 0 360 
L 648 360 
L 648 0 
L 0 0 
z
" style="fill:#ffffff;"/>
  </g>
  <g id="axes_1">
   <g id="patch_2">
    <path d="M 64.8 302.197684 
L 550.8 302.197684 
L 550.8 61.402316 
L 64.8 61.402316 
z
" style="fill:#ffffff;"/>
   </g>
   <g id="PathCollection_1">
    <defs>
     <path d="M 0 2.738613 
C 0.726289 2.738613 1.422928 2.450055 1.936492 1.936492 
C 2.450055 1.422928 2.738613 0.726289 2.738613 -0 
C 2.738613 -0.726289 2.450055 -1.422928 1.936492 -1.936492 
C 1.422928 -2.450055 0.726289 -2.738613 0 -2.738613 
C -0.726289 -2.738613 -1.422928 -2.450055 -1.936492 -1.936492 
C -2.450055 -1.422928 -2.738613 -0.726289 -2.738613 0 
C -2.738613 0.726289 -2.450055 1.422928 -1.936492 1.936492 
C -1.422928 2.450055 -0.726289 2.738613 0 2.738613 
z
" id="C0_0_934437f146"/>
    </defs>
    <g clip-path="url(#pf58472b86e)">
     <use style="fill:none;stroke:#3e0000;" x="92.939543" xlink:href="#C0_0_934437f146" y="289.197733"/>
    </g>
    <g clip-path="url(#pf58472b86e)">
     <use style="fill:none;stroke:#3e0000;" x="97.681449" xlink:href="#C0_0_934437f146" y="284.364025"/>
    </g>
   </g>
   <g id="PathCollection_2">
    <path clip-path="url(#pf58472b86e)" d="M 92.183404 293.481282 
L 94.507194 289.608298 
L 92.183404 285.735315 
L 89.859614 289.608298 
z
" style="fill:none;stroke:#0042b2;"/>
   </g>
   <g id="PathCollection_3">
    <defs>
     <path id="m09073893cf" style="stroke:#0042b2;stroke-width:1.5;"/>
    </defs>
    <g clip-path="url(#pf58472b86e)">
     <use style="fill:#0042b2;stroke:#0042b2;stroke-width:1.5;" x="97.681449" xlink:href="#m09073893cf" y="284.364025"/>
     <use style="fill:#0042b2;stroke:#0042b2;stroke-width:1.5;" x="92.183404" xlink:href="#m09073893cf" y="289.608298"/>
    </g>
   </g>
   <g id="line2d_1">
    <path clip-path="url(#pf58472b86e)" d="M 92.939543 289.197733 
L 97.681449 284.364025 
" style="fill:none;stroke:#8b0000;stroke-linecap:square;stroke-opacity:0.65;"/>
   </g>
   <g id="line2d_2">
    <path clip-path="url(#pf58472b86e)" d="M 92.183404 289.608298 
" style="fill:none;stroke:#1f8fff;stroke-linecap:square;stroke-opacity:0.65;"/>
   </g>
   <g id="line2d_3">
    <path clip-path="url(#pf58472b86e)" d="M 97.681449 284.364025 
L 92.183404 289.608298 
" style="fill:none;stroke:#1f8fff;stroke-linecap:square;stroke-opacity:0.65;"/>
   </g>
   <g id="line2d_4">
    <path clip-path="url(#pf58472b86e)" d="M 214.116329 248.192909 
L 523.416596 213.988859 
L 519.024013 73.991702 
L 321.171078 107.518345 
L 196.07701 142.973098 
L 112.897192 210.249505 
L 98.788476 229.175155 
" style="fill:none;stroke:#ff8f1f;stroke-linecap:square;stroke-opacity:0.65;"/>
   </g>
   <g id="line2d_5">
    <path clip-path="url(#pf58472b86e)" d="M 97.681449 284.364025 
L 214.116329 248.192909 
" style="fill:none;stroke:#ff8f1f;stroke-linecap:square;stroke-opacity:0.65;"/>
   </g>
   <g id="matplotlib.axis_1">
    <g id="xtick_1">
     <g id="line2d_6">
      <path clip-path="url(#pf58472b86e)" d="M 523.416596 302.197684 
L 523.416596 61.402316 
" style="fill:none;stroke:#d3d3d3;stroke-dasharray:5.12,1.28,0.8,1.28;stroke-dashoffset:0;stroke-width:0.8;"/>
     </g>
     <g id="line2d_7">
      <defs>
       <path d="M 0 0 
L 0 -3.5 
" id="m96631fd64a" style="stroke:#000000;stroke-width:0.8;"/>
      </defs>
      <g>
       <use style="stroke:#000000;stroke-width:0.8;" x="523.416596" xlink:href="#m96631fd64a" y="302.197684"/>
      </g>
     </g>
     <g id="text_1">
      <!-- 4919.3 -->
      <g transform="translate(505.921284 314.796121)scale(0.1 -0.1)">
       <defs>
        <path d="M 2234 1581 
L 2234 4063 
L 641 1581 
L 2234 1581 
z
M 3609 0 
L 1484 0 
L 1484 331 
L 2234 331 
L 2234 1247 
L 197 1247 
L 197 1588 
L 2241 4750 
L 2859 4750 
L 2859 1581 
L 3750 1581 
L 3750 1247 
L 2859 1247 
L 2859 331 
L 3609 331 
L 3609 0 
z
" id="DejaVuSerif-34" transform="scale(0.015625)"/>
        <path d="M 2994 2091 
Q 2784 1856 2512 1740 
Q 2241 1625 1900 1625 
Q 1206 1625 804 2044 
Q 403 2463 403 3188 
Q 403 3897 839 4323 
Q 1275 4750 2003 4750 
Q 2794 4750 3217 4161 
Q 3641 3572 3641 2478 
Q 3641 1253 3137 581 
Q 2634 -91 1722 -91 
Q 1475 -91 1203 -44 
Q 931 3 647 97 
L 647 872 
L 997 872 
Q 1038 556 1241 387 
Q 1444 219 1784 219 
Q 2391 219 2687 676 
Q 2984 1134 2994 2091 
z
M 1978 4441 
Q 1534 4441 1298 4117 
Q 1063 3794 1063 3188 
Q 1063 2581 1298 2256 
Q 1534 1931 1978 1931 
Q 2422 1931 2658 2245 
Q 2894 2559 2894 3150 
Q 2894 3772 2656 4106 
Q 2419 4441 1978 4441 
z
" id="DejaVuSerif-39" transform="scale(0.015625)"/>
        <path d="M 909 0 
L 909 331 
L 1722 331 
L 1722 4213 
L 781 3603 
L 781 4013 
L 1919 4750 
L 2350 4750 
L 2350 331 
L 3163 331 
L 3163 0 
L 909 0 
z
" id="DejaVuSerif-31" transform="scale(0.015625)"/>
        <path d="M 603 325 
Q 603 500 722 622 
Q 841 744 1019 744 
Q 1191 744 1312 622 
Q 1434 500 1434 325 
Q 1434 153 1312 31 
Q 1191 -91 1019 -91 
Q 841 -91 722 29 
Q 603 150 603 325 
z
" id="DejaVuSerif-2e" transform="scale(0.015625)"/>
        <path d="M 622 4469 
Q 988 4606 1323 4678 
Q 1659 4750 1953 4750 
Q 2638 4750 3022 4454 
Q 3406 4159 3406 3634 
Q 3406 3213 3140 2930 
Q 2875 2647 2388 2547 
Q 2963 2466 3280 2130 
Q 3597 1794 3597 1259 
Q 3597 606 3158 257 
Q 2719 -91 1894 -91 
Q 1528 -91 1179 -12 
Q 831 66 488 225 
L 488 1131 
L 838 1131 
Q 869 681 1141 450 
Q 1413 219 1906 219 
Q 2384 219 2661 495 
Q 2938 772 2938 1253 
Q 2938 1803 2653 2086 
Q 2369 2369 1819 2369 
L 1522 2369 
L 1522 2688 
L 1678 2688 
Q 2225 2688 2498 2914 
Q 2772 3141 2772 3597 
Q 2772 4006 2547 4223 
Q 2322 4441 1900 4441 
Q 1478 4441 1245 4241 
Q 1013 4041 972 3647 
L 622 3647 
L 622 4469 
z
" id="DejaVuSerif-33" transform="scale(0.015625)"/>
       </defs>
       <use xlink:href="#DejaVuSerif-34"/>
       <use x="63.623047" xlink:href="#DejaVuSerif-39"/>
       <use x="127.246094" xlink:href="#DejaVuSerif-31"/>
       <use x="190.869141" xlink:href="#DejaVuSerif-39"/>
       <use x="254.492188" xlink:href="#DejaVuSerif-2e"/>
       <use x="286.279297" xlink:href="#DejaVuSerif-33"/>
      </g>
     </g>
    </g>
    <g id="xtick_2">
     <g id="line2d_8">
      <path clip-path="url(#pf58472b86e)" d="M 475.501797 302.197684 
L 475.501797 61.402316 
" style="fill:none;stroke:#d3d3d3;stroke-dasharray:5.12,1.28,0.8,1.28;stroke-dashoffset:0;stroke-width:0.8;"/>
     </g>
     <g id="line2d_9">
      <g>
       <use style="stroke:#000000;stroke-width:0.8;" x="475.501797" xlink:href="#m96631fd64a" y="302.197684"/>
      </g>
     </g>
     <g id="text_2">
      <!-- 4382.7 -->
      <g transform="translate(458.006485 314.796121)scale(0.1 -0.1)">
       <defs>
        <path d="M 2981 1275 
Q 2981 1775 2732 2051 
Q 2484 2328 2034 2328 
Q 1584 2328 1336 2051 
Q 1088 1775 1088 1275 
Q 1088 772 1336 495 
Q 1584 219 2034 219 
Q 2484 219 2732 495 
Q 2981 772 2981 1275 
z
M 2853 3541 
Q 2853 3966 2637 4203 
Q 2422 4441 2034 4441 
Q 1650 4441 1433 4203 
Q 1216 3966 1216 3541 
Q 1216 3113 1433 2875 
Q 1650 2638 2034 2638 
Q 2422 2638 2637 2875 
Q 2853 3113 2853 3541 
z
M 2516 2484 
Q 3047 2413 3344 2092 
Q 3641 1772 3641 1275 
Q 3641 619 3225 264 
Q 2809 -91 2034 -91 
Q 1263 -91 845 264 
Q 428 619 428 1275 
Q 428 1772 725 2092 
Q 1022 2413 1556 2484 
Q 1084 2569 832 2842 
Q 581 3116 581 3541 
Q 581 4103 968 4426 
Q 1356 4750 2034 4750 
Q 2713 4750 3100 4426 
Q 3488 4103 3488 3541 
Q 3488 3116 3236 2842 
Q 2984 2569 2516 2484 
z
" id="DejaVuSerif-38" transform="scale(0.015625)"/>
        <path d="M 819 3553 
L 469 3553 
L 469 4384 
Q 803 4563 1142 4656 
Q 1481 4750 1806 4750 
Q 2534 4750 2956 4397 
Q 3378 4044 3378 3438 
Q 3378 2753 2422 1800 
Q 2347 1728 2309 1691 
L 1131 513 
L 3078 513 
L 3078 1088 
L 3444 1088 
L 3444 0 
L 434 0 
L 434 341 
L 1850 1753 
Q 2319 2222 2519 2614 
Q 2719 3006 2719 3438 
Q 2719 3909 2473 4175 
Q 2228 4441 1797 4441 
Q 1350 4441 1106 4219 
Q 863 3997 819 3553 
z
" id="DejaVuSerif-32" transform="scale(0.015625)"/>
        <path d="M 3609 4347 
L 1784 0 
L 1319 0 
L 3059 4153 
L 903 4153 
L 903 3578 
L 538 3578 
L 538 4666 
L 3609 4666 
L 3609 4347 
z
" id="DejaVuSerif-37" transform="scale(0.015625)"/>
       </defs>
       <use xlink:href="#DejaVuSerif-34"/>
       <use x="63.623047" xlink:href="#DejaVuSerif-33"/>
       <use x="127.246094" xlink:href="#DejaVuSerif-38"/>
       <use x="190.869141" xlink:href="#DejaVuSerif-32"/>
       <use x="254.492188" xlink:href="#DejaVuSerif-2e"/>
       <use x="286.279297" xlink:href="#DejaVuSerif-37"/>
      </g>
     </g>
    </g>
    <g id="xtick_3">
     <g id="line2d_10">
      <path clip-path="url(#pf58472b86e)" d="M 427.586998 302.197684 
L 427.586998 61.402316 
" style="fill:none;stroke:#d3d3d3;stroke-dasharray:5.12,1.28,0.8,1.28;stroke-dashoffset:0;stroke-width:0.8;"/>
     </g>
     <g id="line2d_11">
      <g>
       <use style="stroke:#000000;stroke-width:0.8;" x="427.586998" xlink:href="#m96631fd64a" y="302.197684"/>
      </g>
     </g>
     <g id="text_3">
      <!-- 3846.1 -->
      <g transform="translate(410.091685 314.796121)scale(0.1 -0.1)">
       <defs>
        <path d="M 2094 219 
Q 2534 219 2771 542 
Q 3009 866 3009 1472 
Q 3009 2078 2771 2401 
Q 2534 2725 2094 2725 
Q 1647 2725 1412 2412 
Q 1178 2100 1178 1509 
Q 1178 888 1415 553 
Q 1653 219 2094 219 
z
M 1075 2569 
Q 1288 2803 1556 2918 
Q 1825 3034 2163 3034 
Q 2859 3034 3264 2615 
Q 3669 2197 3669 1472 
Q 3669 763 3233 336 
Q 2797 -91 2069 -91 
Q 1278 -91 853 498 
Q 428 1088 428 2181 
Q 428 3406 931 4078 
Q 1434 4750 2350 4750 
Q 2597 4750 2869 4703 
Q 3141 4656 3425 4563 
L 3425 3794 
L 3072 3794 
Q 3034 4109 2831 4275 
Q 2628 4441 2284 4441 
Q 1678 4441 1381 3981 
Q 1084 3522 1075 2569 
z
" id="DejaVuSerif-36" transform="scale(0.015625)"/>
       </defs>
       <use xlink:href="#DejaVuSerif-33"/>
       <use x="63.623047" xlink:href="#DejaVuSerif-38"/>
       <use x="127.246094" xlink:href="#DejaVuSerif-34"/>
       <use x="190.869141" xlink:href="#DejaVuSerif-36"/>
       <use x="254.492188" xlink:href="#DejaVuSerif-2e"/>
       <use x="286.279297" xlink:href="#DejaVuSerif-31"/>
      </g>
     </g>
    </g>
    <g id="xtick_4">
     <g id="line2d_12">
      <path clip-path="url(#pf58472b86e)" d="M 379.672199 302.197684 
L 379.672199 61.402316 
" style="fill:none;stroke:#d3d3d3;stroke-dasharray:5.12,1.28,0.8,1.28;stroke-dashoffset:0;stroke-width:0.8;"/>
     </g>
     <g id="line2d_13">
      <g>
       <use style="stroke:#000000;stroke-width:0.8;" x="379.672199" xlink:href="#m96631fd64a" y="302.197684"/>
      </g>
     </g>
     <g id="text_4">
      <!-- 3309.5 -->
      <g transform="translate(362.176886 314.796121)scale(0.1 -0.1)">
       <defs>
        <path d="M 2034 219 
Q 2513 219 2750 744 
Q 2988 1269 2988 2328 
Q 2988 3391 2750 3916 
Q 2513 4441 2034 4441 
Q 1556 4441 1318 3916 
Q 1081 3391 1081 2328 
Q 1081 1269 1318 744 
Q 1556 219 2034 219 
z
M 2034 -91 
Q 1275 -91 848 546 
Q 422 1184 422 2328 
Q 422 3475 848 4112 
Q 1275 4750 2034 4750 
Q 2797 4750 3222 4112 
Q 3647 3475 3647 2328 
Q 3647 1184 3222 546 
Q 2797 -91 2034 -91 
z
" id="DejaVuSerif-30" transform="scale(0.015625)"/>
        <path d="M 3219 4666 
L 3219 4153 
L 1081 4153 
L 1081 2816 
Q 1244 2928 1461 2984 
Q 1678 3041 1947 3041 
Q 2703 3041 3140 2622 
Q 3578 2203 3578 1478 
Q 3578 738 3136 323 
Q 2694 -91 1894 -91 
Q 1572 -91 1234 -12 
Q 897 66 544 225 
L 544 1131 
L 897 1131 
Q 925 688 1179 453 
Q 1434 219 1894 219 
Q 2388 219 2653 544 
Q 2919 869 2919 1478 
Q 2919 2084 2655 2407 
Q 2391 2731 1894 2731 
Q 1613 2731 1398 2631 
Q 1184 2531 1019 2322 
L 750 2322 
L 750 4666 
L 3219 4666 
z
" id="DejaVuSerif-35" transform="scale(0.015625)"/>
       </defs>
       <use xlink:href="#DejaVuSerif-33"/>
       <use x="63.623047" xlink:href="#DejaVuSerif-33"/>
       <use x="127.246094" xlink:href="#DejaVuSerif-30"/>
       <use x="190.869141" xlink:href="#DejaVuSerif-39"/>
       <use x="254.492188" xlink:href="#DejaVuSerif-2e"/>
       <use x="286.279297" xlink:href="#DejaVuSerif-35"/>
      </g>
     </g>
    </g>
    <g id="xtick_5">
     <g id="line2d_14">
      <path clip-path="url(#pf58472b86e)" d="M 331.7574 302.197684 
L 331.7574 61.402316 
" style="fill:none;stroke:#d3d3d3;stroke-dasharray:5.12,1.28,0.8,1.28;stroke-dashoffset:0;stroke-width:0.8;"/>
     </g>
     <g id="line2d_15">
      <g>
       <use style="stroke:#000000;stroke-width:0.8;" x="331.7574" xlink:href="#m96631fd64a" y="302.197684"/>
      </g>
     </g>
     <g id="text_5">
      <!-- 2772.9 -->
      <g transform="translate(314.262087 314.796121)scale(0.1 -0.1)">
       <use xlink:href="#DejaVuSerif-32"/>
       <use x="63.623047" xlink:href="#DejaVuSerif-37"/>
       <use x="127.246094" xlink:href="#DejaVuSerif-37"/>
       <use x="190.869141" xlink:href="#DejaVuSerif-32"/>
       <use x="254.492188" xlink:href="#DejaVuSerif-2e"/>
       <use x="286.279297" xlink:href="#DejaVuSerif-39"/>
      </g>
     </g>
    </g>
    <g id="xtick_6">
     <g id="line2d_16">
      <path clip-path="url(#pf58472b86e)" d="M 283.8426 302.197684 
L 283.8426 61.402316 
" style="fill:none;stroke:#d3d3d3;stroke-dasharray:5.12,1.28,0.8,1.28;stroke-dashoffset:0;stroke-width:0.8;"/>
     </g>
     <g id="line2d_17">
      <g>
       <use style="stroke:#000000;stroke-width:0.8;" x="283.8426" xlink:href="#m96631fd64a" y="302.197684"/>
      </g>
     </g>
     <g id="text_6">
      <!-- 2236.3 -->
      <g transform="translate(266.347288 314.796121)scale(0.1 -0.1)">
       <use xlink:href="#DejaVuSerif-32"/>
       <use x="63.623047" xlink:href="#DejaVuSerif-32"/>
       <use x="127.246094" xlink:href="#DejaVuSerif-33"/>
       <use x="190.869141" xlink:href="#DejaVuSerif-36"/>
       <use x="254.492188" xlink:href="#DejaVuSerif-2e"/>
       <use x="286.279297" xlink:href="#DejaVuSerif-33"/>
      </g>
     </g>
    </g>
    <g id="xtick_7">
     <g id="line2d_18">
      <path clip-path="url(#pf58472b86e)" d="M 235.927801 302.197684 
L 235.927801 61.402316 
" style="fill:none;stroke:#d3d3d3;stroke-dasharray:5.12,1.28,0.8,1.28;stroke-dashoffset:0;stroke-width:0.8;"/>
     </g>
     <g id="line2d_19">
      <g>
       <use style="stroke:#000000;stroke-width:0.8;" x="235.927801" xlink:href="#m96631fd64a" y="302.197684"/>
      </g>
     </g>
     <g id="text_7">
      <!-- 1699.7 -->
      <g transform="translate(218.432489 314.796121)scale(0.1 -0.1)">
       <use xlink:href="#DejaVuSerif-31"/>
       <use x="63.623047" xlink:href="#DejaVuSerif-36"/>
       <use x="127.246094" xlink:href="#DejaVuSerif-39"/>
       <use x="190.869141" xlink:href="#DejaVuSerif-39"/>
       <use x="254.492188" xlink:href="#DejaVuSerif-2e"/>
       <use x="286.279297" xlink:href="#DejaVuSerif-37"/>
      </g>
     </g>
    </g>
    <g id="xtick_8">
     <g id="line2d_20">
      <path clip-path="url(#pf58472b86e)" d="M 188.013002 302.197684 
L 188.013002 61.402316 
" style="fill:none;stroke:#d3d3d3;stroke-dasharray:5.12,1.28,0.8,1.28;stroke-dashoffset:0;stroke-width:0.8;"/>
     </g>
     <g id="line2d_21">
      <g>
       <use style="stroke:#000000;stroke-width:0.8;" x="188.013002" xlink:href="#m96631fd64a" y="302.197684"/>
      </g>
     </g>
     <g id="text_8">
      <!-- 1163.1 -->
      <g transform="translate(170.51769 314.796121)scale(0.1 -0.1)">
       <use xlink:href="#DejaVuSerif-31"/>
       <use x="63.623047" xlink:href="#DejaVuSerif-31"/>
       <use x="127.246094" xlink:href="#DejaVuSerif-36"/>
       <use x="190.869141" xlink:href="#DejaVuSerif-33"/>
       <use x="254.492188" xlink:href="#DejaVuSerif-2e"/>
       <use x="286.279297" xlink:href="#DejaVuSerif-31"/>
      </g>
     </g>
    </g>
    <g id="xtick_9">
     <g id="line2d_22">
      <path clip-path="url(#pf58472b86e)" d="M 140.098203 302.197684 
L 140.098203 61.402316 
" style="fill:none;stroke:#d3d3d3;stroke-dasharray:5.12,1.28,0.8,1.28;stroke-dashoffset:0;stroke-width:0.8;"/>
     </g>
     <g id="line2d_23">
      <g>
       <use style="stroke:#000000;stroke-width:0.8;" x="140.098203" xlink:href="#m96631fd64a" y="302.197684"/>
      </g>
     </g>
     <g id="text_9">
      <!-- 626.5 -->
      <g transform="translate(125.78414 314.796121)scale(0.1 -0.1)">
       <use xlink:href="#DejaVuSerif-36"/>
       <use x="63.623047" xlink:href="#DejaVuSerif-32"/>
       <use x="127.246094" xlink:href="#DejaVuSerif-36"/>
       <use x="190.869141" xlink:href="#DejaVuSerif-2e"/>
       <use x="222.65625" xlink:href="#DejaVuSerif-35"/>
      </g>
     </g>
    </g>
    <g id="xtick_10">
     <g id="line2d_24">
      <path clip-path="url(#pf58472b86e)" d="M 92.183404 302.197684 
L 92.183404 61.402316 
" style="fill:none;stroke:#d3d3d3;stroke-dasharray:5.12,1.28,0.8,1.28;stroke-dashoffset:0;stroke-width:0.8;"/>
     </g>
     <g id="line2d_25">
      <g>
       <use style="stroke:#000000;stroke-width:0.8;" x="92.183404" xlink:href="#m96631fd64a" y="302.197684"/>
      </g>
     </g>
     <g id="text_10">
      <!-- 89.9 -->
      <g transform="translate(81.050591 314.796121)scale(0.1 -0.1)">
       <use xlink:href="#DejaVuSerif-38"/>
       <use x="63.623047" xlink:href="#DejaVuSerif-39"/>
       <use x="127.246094" xlink:href="#DejaVuSerif-2e"/>
       <use x="159.033203" xlink:href="#DejaVuSerif-39"/>
      </g>
     </g>
    </g>
    <g id="text_11">
     <!-- p$_0$ [kPa] -->
     <g transform="translate(283.2 335.995809)scale(0.12 -0.12)">
      <defs>
       <path d="M 1313 1825 
L 1313 1497 
Q 1313 897 1542 583 
Q 1772 269 2209 269 
Q 2650 269 2876 622 
Q 3103 975 3103 1663 
Q 3103 2353 2876 2703 
Q 2650 3053 2209 3053 
Q 1772 3053 1542 2737 
Q 1313 2422 1313 1825 
z
M 738 2988 
L 184 2988 
L 184 3322 
L 1313 3322 
L 1313 2803 
Q 1481 3116 1742 3264 
Q 2003 3413 2388 3413 
Q 3000 3413 3387 2928 
Q 3775 2444 3775 1663 
Q 3775 881 3387 395 
Q 3000 -91 2388 -91 
Q 2003 -91 1742 57 
Q 1481 206 1313 519 
L 1313 -997 
L 1856 -997 
L 1856 -1331 
L 184 -1331 
L 184 -997 
L 738 -997 
L 738 2988 
z
" id="DejaVuSerif-70" transform="scale(0.015625)"/>
       <path id="DejaVuSerif-20" transform="scale(0.015625)"/>
       <path d="M 550 4863 
L 2003 4863 
L 2003 4531 
L 1147 4531 
L 1147 -513 
L 2003 -513 
L 2003 -844 
L 550 -844 
L 550 4863 
z
" id="DejaVuSerif-5b" transform="scale(0.015625)"/>
       <path d="M 1831 0 
L 219 0 
L 219 331 
L 738 331 
L 738 4531 
L 184 4531 
L 184 4863 
L 1313 4863 
L 1313 1697 
L 2713 2988 
L 2234 2988 
L 2234 3322 
L 3738 3322 
L 3738 2988 
L 3169 2988 
L 2181 2075 
L 3444 331 
L 3922 331 
L 3922 0 
L 2284 0 
L 2284 331 
L 2759 331 
L 1766 1697 
L 1313 1275 
L 1313 331 
L 1831 331 
L 1831 0 
z
" id="DejaVuSerif-6b" transform="scale(0.015625)"/>
       <path d="M 1581 2375 
L 2406 2375 
Q 2872 2375 3115 2626 
Q 3359 2878 3359 3353 
Q 3359 3831 3115 4081 
Q 2872 4331 2406 4331 
L 1581 4331 
L 1581 2375 
z
M 353 0 
L 353 331 
L 947 331 
L 947 4331 
L 353 4331 
L 353 4666 
L 2559 4666 
Q 3259 4666 3668 4311 
Q 4078 3956 4078 3353 
Q 4078 2753 3668 2397 
Q 3259 2041 2559 2041 
L 1581 2041 
L 1581 331 
L 2303 331 
L 2303 0 
L 353 0 
z
" id="DejaVuSerif-50" transform="scale(0.015625)"/>
       <path d="M 2547 1044 
L 2547 1747 
L 1806 1747 
Q 1378 1747 1168 1562 
Q 959 1378 959 997 
Q 959 650 1171 447 
Q 1384 244 1747 244 
Q 2106 244 2326 466 
Q 2547 688 2547 1044 
z
M 3122 2075 
L 3122 331 
L 3634 331 
L 3634 0 
L 2547 0 
L 2547 359 
Q 2356 128 2106 18 
Q 1856 -91 1522 -91 
Q 969 -91 644 203 
Q 319 497 319 997 
Q 319 1513 691 1797 
Q 1063 2081 1741 2081 
L 2547 2081 
L 2547 2309 
Q 2547 2688 2317 2895 
Q 2088 3103 1672 3103 
Q 1328 3103 1125 2947 
Q 922 2791 872 2484 
L 575 2484 
L 575 3156 
Q 875 3284 1158 3348 
Q 1441 3413 1709 3413 
Q 2400 3413 2761 3070 
Q 3122 2728 3122 2075 
z
" id="DejaVuSerif-61" transform="scale(0.015625)"/>
       <path d="M 1947 4863 
L 1947 -844 
L 494 -844 
L 494 -513 
L 1350 -513 
L 1350 4531 
L 494 4531 
L 494 4863 
L 1947 4863 
z
" id="DejaVuSerif-5d" transform="scale(0.015625)"/>
      </defs>
      <use transform="translate(0 0.015625)" xlink:href="#DejaVuSerif-70"/>
      <use transform="translate(64.922031 -15.55625)scale(0.7)" xlink:href="#DejaVuSerif-30"/>
      <use transform="translate(112.053477 0.015625)" xlink:href="#DejaVuSerif-20"/>
      <use transform="translate(143.840586 0.015625)" xlink:href="#DejaVuSerif-5b"/>
      <use transform="translate(182.854258 0.015625)" xlink:href="#DejaVuSerif-6b"/>
      <use transform="translate(243.449961 0.015625)" xlink:href="#DejaVuSerif-50"/>
      <use transform="translate(310.735117 0.015625)" xlink:href="#DejaVuSerif-61"/>
      <use transform="translate(370.354258 0.015625)" xlink:href="#DejaVuSerif-5d"/>
     </g>
    </g>
   </g>
   <g id="matplotlib.axis_2">
    <g id="ytick_1">
     <g id="line2d_26">
      <path clip-path="url(#pf58472b86e)" d="M 64.8 73.991702 
L 550.8 73.991702 
" style="fill:none;stroke:#d3d3d3;stroke-dasharray:5.12,1.28,0.8,1.28;stroke-dashoffset:0;stroke-width:0.8;"/>
     </g>
     <g id="line2d_27">
      <defs>
       <path d="M 0 0 
L 3.5 0 
" id="mdfb98f9f50" style="stroke:#000000;stroke-width:0.8;"/>
      </defs>
      <g>
       <use style="stroke:#000000;stroke-width:0.8;" x="64.8" xlink:href="#mdfb98f9f50" y="73.991702"/>
      </g>
     </g>
     <g id="text_12">
      <!-- 2100.9 -->
      <g transform="translate(24.809375 77.790921)scale(0.1 -0.1)">
       <use xlink:href="#DejaVuSerif-32"/>
       <use x="63.623047" xlink:href="#DejaVuSerif-31"/>
       <use x="127.246094" xlink:href="#DejaVuSerif-30"/>
       <use x="190.869141" xlink:href="#DejaVuSerif-30"/>
       <use x="254.492188" xlink:href="#DejaVuSerif-2e"/>
       <use x="286.279297" xlink:href="#DejaVuSerif-39"/>
      </g>
     </g>
    </g>
    <g id="ytick_2">
     <g id="line2d_28">
      <path clip-path="url(#pf58472b86e)" d="M 64.8 97.949101 
L 550.8 97.949101 
" style="fill:none;stroke:#d3d3d3;stroke-dasharray:5.12,1.28,0.8,1.28;stroke-dashoffset:0;stroke-width:0.8;"/>
     </g>
     <g id="line2d_29">
      <g>
       <use style="stroke:#000000;stroke-width:0.8;" x="64.8" xlink:href="#mdfb98f9f50" y="97.949101"/>
      </g>
     </g>
     <g id="text_13">
      <!-- 1899.5 -->
      <g transform="translate(24.809375 101.74832)scale(0.1 -0.1)">
       <use xlink:href="#DejaVuSerif-31"/>
       <use x="63.623047" xlink:href="#DejaVuSerif-38"/>
       <use x="127.246094" xlink:href="#DejaVuSerif-39"/>
       <use x="190.869141" xlink:href="#DejaVuSerif-39"/>
       <use x="254.492188" xlink:href="#DejaVuSerif-2e"/>
       <use x="286.279297" xlink:href="#DejaVuSerif-35"/>
      </g>
     </g>
    </g>
    <g id="ytick_3">
     <g id="line2d_30">
      <path clip-path="url(#pf58472b86e)" d="M 64.8 121.906501 
L 550.8 121.906501 
" style="fill:none;stroke:#d3d3d3;stroke-dasharray:5.12,1.28,0.8,1.28;stroke-dashoffset:0;stroke-width:0.8;"/>
     </g>
     <g id="line2d_31">
      <g>
       <use style="stroke:#000000;stroke-width:0.8;" x="64.8" xlink:href="#mdfb98f9f50" y="121.906501"/>
      </g>
     </g>
     <g id="text_14">
      <!-- 1698.0 -->
      <g transform="translate(24.809375 125.70572)scale(0.1 -0.1)">
       <use xlink:href="#DejaVuSerif-31"/>
       <use x="63.623047" xlink:href="#DejaVuSerif-36"/>
       <use x="127.246094" xlink:href="#DejaVuSerif-39"/>
       <use x="190.869141" xlink:href="#DejaVuSerif-38"/>
       <use x="254.492188" xlink:href="#DejaVuSerif-2e"/>
       <use x="286.279297" xlink:href="#DejaVuSerif-30"/>
      </g>
     </g>
    </g>
    <g id="ytick_4">
     <g id="line2d_32">
      <path clip-path="url(#pf58472b86e)" d="M 64.8 145.863901 
L 550.8 145.863901 
" style="fill:none;stroke:#d3d3d3;stroke-dasharray:5.12,1.28,0.8,1.28;stroke-dashoffset:0;stroke-width:0.8;"/>
     </g>
     <g id="line2d_33">
      <g>
       <use style="stroke:#000000;stroke-width:0.8;" x="64.8" xlink:href="#mdfb98f9f50" y="145.863901"/>
      </g>
     </g>
     <g id="text_15">
      <!-- 1496.5 -->
      <g transform="translate(24.809375 149.663119)scale(0.1 -0.1)">
       <use xlink:href="#DejaVuSerif-31"/>
       <use x="63.623047" xlink:href="#DejaVuSerif-34"/>
       <use x="127.246094" xlink:href="#DejaVuSerif-39"/>
       <use x="190.869141" xlink:href="#DejaVuSerif-36"/>
       <use x="254.492188" xlink:href="#DejaVuSerif-2e"/>
       <use x="286.279297" xlink:href="#DejaVuSerif-35"/>
      </g>
     </g>
    </g>
    <g id="ytick_5">
     <g id="line2d_34">
      <path clip-path="url(#pf58472b86e)" d="M 64.8 169.8213 
L 550.8 169.8213 
" style="fill:none;stroke:#d3d3d3;stroke-dasharray:5.12,1.28,0.8,1.28;stroke-dashoffset:0;stroke-width:0.8;"/>
     </g>
     <g id="line2d_35">
      <g>
       <use style="stroke:#000000;stroke-width:0.8;" x="64.8" xlink:href="#mdfb98f9f50" y="169.8213"/>
      </g>
     </g>
     <g id="text_16">
      <!-- 1295.0 -->
      <g transform="translate(24.809375 173.620519)scale(0.1 -0.1)">
       <use xlink:href="#DejaVuSerif-31"/>
       <use x="63.623047" xlink:href="#DejaVuSerif-32"/>
       <use x="127.246094" xlink:href="#DejaVuSerif-39"/>
       <use x="190.869141" xlink:href="#DejaVuSerif-35"/>
       <use x="254.492188" xlink:href="#DejaVuSerif-2e"/>
       <use x="286.279297" xlink:href="#DejaVuSerif-30"/>
      </g>
     </g>
    </g>
    <g id="ytick_6">
     <g id="line2d_36">
      <path clip-path="url(#pf58472b86e)" d="M 64.8 193.7787 
L 550.8 193.7787 
" style="fill:none;stroke:#d3d3d3;stroke-dasharray:5.12,1.28,0.8,1.28;stroke-dashoffset:0;stroke-width:0.8;"/>
     </g>
     <g id="line2d_37">
      <g>
       <use style="stroke:#000000;stroke-width:0.8;" x="64.8" xlink:href="#mdfb98f9f50" y="193.7787"/>
      </g>
     </g>
     <g id="text_17">
      <!-- 1093.5 -->
      <g transform="translate(24.809375 197.577919)scale(0.1 -0.1)">
       <use xlink:href="#DejaVuSerif-31"/>
       <use x="63.623047" xlink:href="#DejaVuSerif-30"/>
       <use x="127.246094" xlink:href="#DejaVuSerif-39"/>
       <use x="190.869141" xlink:href="#DejaVuSerif-33"/>
       <use x="254.492188" xlink:href="#DejaVuSerif-2e"/>
       <use x="286.279297" xlink:href="#DejaVuSerif-35"/>
      </g>
     </g>
    </g>
    <g id="ytick_7">
     <g id="line2d_38">
      <path clip-path="url(#pf58472b86e)" d="M 64.8 217.736099 
L 550.8 217.736099 
" style="fill:none;stroke:#d3d3d3;stroke-dasharray:5.12,1.28,0.8,1.28;stroke-dashoffset:0;stroke-width:0.8;"/>
     </g>
     <g id="line2d_39">
      <g>
       <use style="stroke:#000000;stroke-width:0.8;" x="64.8" xlink:href="#mdfb98f9f50" y="217.736099"/>
      </g>
     </g>
     <g id="text_18">
      <!-- 892.0 -->
      <g transform="translate(31.171875 221.535318)scale(0.1 -0.1)">
       <use xlink:href="#DejaVuSerif-38"/>
       <use x="63.623047" xlink:href="#DejaVuSerif-39"/>
       <use x="127.246094" xlink:href="#DejaVuSerif-32"/>
       <use x="190.869141" xlink:href="#DejaVuSerif-2e"/>
       <use x="222.65625" xlink:href="#DejaVuSerif-30"/>
      </g>
     </g>
    </g>
    <g id="ytick_8">
     <g id="line2d_40">
      <path clip-path="url(#pf58472b86e)" d="M 64.8 241.693499 
L 550.8 241.693499 
" style="fill:none;stroke:#d3d3d3;stroke-dasharray:5.12,1.28,0.8,1.28;stroke-dashoffset:0;stroke-width:0.8;"/>
     </g>
     <g id="line2d_41">
      <g>
       <use style="stroke:#000000;stroke-width:0.8;" x="64.8" xlink:href="#mdfb98f9f50" y="241.693499"/>
      </g>
     </g>
     <g id="text_19">
      <!-- 690.6 -->
      <g transform="translate(31.171875 245.492718)scale(0.1 -0.1)">
       <use xlink:href="#DejaVuSerif-36"/>
       <use x="63.623047" xlink:href="#DejaVuSerif-39"/>
       <use x="127.246094" xlink:href="#DejaVuSerif-30"/>
       <use x="190.869141" xlink:href="#DejaVuSerif-2e"/>
       <use x="222.65625" xlink:href="#DejaVuSerif-36"/>
      </g>
     </g>
    </g>
    <g id="ytick_9">
     <g id="line2d_42">
      <path clip-path="url(#pf58472b86e)" d="M 64.8 265.650899 
L 550.8 265.650899 
" style="fill:none;stroke:#d3d3d3;stroke-dasharray:5.12,1.28,0.8,1.28;stroke-dashoffset:0;stroke-width:0.8;"/>
     </g>
     <g id="line2d_43">
      <g>
       <use style="stroke:#000000;stroke-width:0.8;" x="64.8" xlink:href="#mdfb98f9f50" y="265.650899"/>
      </g>
     </g>
     <g id="text_20">
      <!-- 489.1 -->
      <g transform="translate(31.171875 269.450117)scale(0.1 -0.1)">
       <use xlink:href="#DejaVuSerif-34"/>
       <use x="63.623047" xlink:href="#DejaVuSerif-38"/>
       <use x="127.246094" xlink:href="#DejaVuSerif-39"/>
       <use x="190.869141" xlink:href="#DejaVuSerif-2e"/>
       <use x="222.65625" xlink:href="#DejaVuSerif-31"/>
      </g>
     </g>
    </g>
    <g id="ytick_10">
     <g id="line2d_44">
      <path clip-path="url(#pf58472b86e)" d="M 64.8 289.608298 
L 550.8 289.608298 
" style="fill:none;stroke:#d3d3d3;stroke-dasharray:5.12,1.28,0.8,1.28;stroke-dashoffset:0;stroke-width:0.8;"/>
     </g>
     <g id="line2d_45">
      <g>
       <use style="stroke:#000000;stroke-width:0.8;" x="64.8" xlink:href="#mdfb98f9f50" y="289.608298"/>
      </g>
     </g>
     <g id="text_21">
      <!-- 287.6 -->
      <g transform="translate(31.171875 293.407517)scale(0.1 -0.1)">
       <use xlink:href="#DejaVuSerif-32"/>
       <use x="63.623047" xlink:href="#DejaVuSerif-38"/>
       <use x="127.246094" xlink:href="#DejaVuSerif-37"/>
       <use x="190.869141" xlink:href="#DejaVuSerif-2e"/>
       <use x="222.65625" xlink:href="#DejaVuSerif-36"/>
      </g>
     </g>
    </g>
    <g id="text_22">
     <!-- H$_0$ [kJ] -->
     <g transform="translate(17.289375 202.56)rotate(-90)scale(0.12 -0.12)">
      <defs>
       <path d="M 353 0 
L 353 331 
L 947 331 
L 947 4331 
L 353 4331 
L 353 4666 
L 2175 4666 
L 2175 4331 
L 1581 4331 
L 1581 2719 
L 4000 2719 
L 4000 4331 
L 3406 4331 
L 3406 4666 
L 5228 4666 
L 5228 4331 
L 4634 4331 
L 4634 331 
L 5228 331 
L 5228 0 
L 3406 0 
L 3406 331 
L 4000 331 
L 4000 2338 
L 1581 2338 
L 1581 331 
L 2175 331 
L 2175 0 
L 353 0 
z
" id="DejaVuSerif-48" transform="scale(0.015625)"/>
       <path d="M -538 -1119 
L -538 -384 
L -181 -384 
Q -172 -694 -34 -845 
Q 103 -997 378 -997 
Q 750 -997 897 -762 
Q 1044 -528 1044 153 
L 1044 4331 
L 319 4331 
L 319 4666 
L 2272 4666 
L 2272 4331 
L 1678 4331 
L 1678 128 
Q 1678 -644 1368 -987 
Q 1059 -1331 372 -1331 
Q 150 -1331 -79 -1278 
Q -309 -1225 -538 -1119 
z
" id="DejaVuSerif-4a" transform="scale(0.015625)"/>
      </defs>
      <use transform="translate(0 0.015625)" xlink:href="#DejaVuSerif-48"/>
      <use transform="translate(88.115391 -15.55625)scale(0.7)" xlink:href="#DejaVuSerif-30"/>
      <use transform="translate(135.246836 0.015625)" xlink:href="#DejaVuSerif-20"/>
      <use transform="translate(167.033945 0.015625)" xlink:href="#DejaVuSerif-5b"/>
      <use transform="translate(206.047617 0.015625)" xlink:href="#DejaVuSerif-6b"/>
      <use transform="translate(266.64332 0.015625)" xlink:href="#DejaVuSerif-4a"/>
      <use transform="translate(306.731211 0.015625)" xlink:href="#DejaVuSerif-5d"/>
     </g>
    </g>
   </g>
   <g id="PathCollection_4">
    <path clip-path="url(#pf58472b86e)" d="M 214.116329 250.931522 
L 216.854942 245.454296 
L 211.377717 245.454296 
z
" style="fill:none;stroke:#b24200;"/>
    <path clip-path="url(#pf58472b86e)" d="M 523.416596 216.727472 
L 526.155209 211.250247 
L 520.677984 211.250247 
z
" style="fill:none;stroke:#b24200;"/>
    <path clip-path="url(#pf58472b86e)" d="M 519.024013 76.730315 
L 521.762626 71.253089 
L 516.2854 71.253089 
z
" style="fill:none;stroke:#b24200;"/>
    <path clip-path="url(#pf58472b86e)" d="M 321.171078 110.256958 
L 323.90969 104.779732 
L 318.432465 104.779732 
z
" style="fill:none;stroke:#b24200;"/>
    <path clip-path="url(#pf58472b86e)" d="M 196.07701 145.711711 
L 198.815623 140.234485 
L 193.338398 140.234485 
z
" style="fill:none;stroke:#b24200;"/>
    <path clip-path="url(#pf58472b86e)" d="M 112.897192 212.988117 
L 115.635804 207.510892 
L 110.158579 207.510892 
z
" style="fill:none;stroke:#b24200;"/>
    <path clip-path="url(#pf58472b86e)" d="M 98.788476 231.913768 
L 101.527089 226.436542 
L 96.049864 226.436542 
z
" style="fill:none;stroke:#b24200;"/>
   </g>
   <g id="PathCollection_5">
    <defs>
     <path id="m9252c9d269" style="stroke:#b24200;stroke-width:1.5;"/>
    </defs>
    <g clip-path="url(#pf58472b86e)">
     <use style="fill:#b24200;stroke:#b24200;stroke-width:1.5;" x="97.681449" xlink:href="#m9252c9d269" y="284.364025"/>
     <use style="fill:#b24200;stroke:#b24200;stroke-width:1.5;" x="214.116329" xlink:href="#m9252c9d269" y="248.192909"/>
    </g>
   </g>
   <g id="patch_3">
    <path d="M 64.8 302.197684 
L 64.8 61.402316 
" style="fill:none;stroke:#000000;stroke-linecap:square;stroke-linejoin:miter;stroke-width:0.8;"/>
   </g>
   <g id="patch_4">
    <path d="M 64.8 302.197684 
L 550.8 302.197684 
" style="fill:none;stroke:#000000;stroke-linecap:square;stroke-linejoin:miter;stroke-width:0.8;"/>
   </g>
  </g>
  <g id="legend_1">
   <g id="patch_5">
    <path d="M 563.12 207 
L 629.450469 207 
Q 632.050469 207 632.050469 204.4 
L 632.050469 148.455312 
Q 632.050469 145.855312 629.450469 145.855312 
L 563.12 145.855312 
Q 560.52 145.855312 560.52 148.455312 
L 560.52 204.4 
Q 560.52 207 563.12 207 
z
" style="fill:#ffffff;opacity:0.8;stroke:#cccccc;stroke-linejoin:miter;"/>
   </g>
   <g id="PathCollection_6">
    <path d="M 578.72 160.259394 
C 579.446289 160.259394 580.142928 159.970837 580.656492 159.457273 
C 581.170055 158.943709 581.458613 158.24707 581.458613 157.520781 
C 581.458613 156.794493 581.170055 156.097853 580.656492 155.58429 
C 580.142928 155.070726 579.446289 154.782168 578.72 154.782168 
C 577.993711 154.782168 577.297072 155.070726 576.783508 155.58429 
C 576.269945 156.097853 575.981387 156.794493 575.981387 157.520781 
C 575.981387 158.24707 576.269945 158.943709 576.783508 159.457273 
C 577.297072 159.970837 577.993711 160.259394 578.72 160.259394 
z
" style="fill:none;stroke:#3e0000;"/>
   </g>
   <g id="text_23">
    <!-- 0 -->
    <g transform="translate(602.12 160.933281)scale(0.13 -0.13)">
     <use xlink:href="#DejaVuSerif-30"/>
    </g>
   </g>
   <g id="PathCollection_7">
    <path d="M 578.72 180.475327 
L 581.04379 176.602344 
L 578.72 172.72936 
L 576.39621 176.602344 
z
" style="fill:none;stroke:#0042b2;"/>
   </g>
   <g id="text_24">
    <!-- 1.m -->
    <g transform="translate(602.12 180.014844)scale(0.13 -0.13)">
     <defs>
      <path d="M 3316 2675 
Q 3481 3041 3739 3227 
Q 3997 3413 4341 3413 
Q 4863 3413 5119 3089 
Q 5375 2766 5375 2113 
L 5375 331 
L 5894 331 
L 5894 0 
L 4300 0 
L 4300 331 
L 4800 331 
L 4800 2047 
Q 4800 2556 4650 2772 
Q 4500 2988 4153 2988 
Q 3769 2988 3567 2697 
Q 3366 2406 3366 1850 
L 3366 331 
L 3866 331 
L 3866 0 
L 2291 0 
L 2291 331 
L 2791 331 
L 2791 2069 
Q 2791 2566 2641 2777 
Q 2491 2988 2144 2988 
Q 1759 2988 1557 2697 
Q 1356 2406 1356 1850 
L 1356 331 
L 1856 331 
L 1856 0 
L 263 0 
L 263 331 
L 781 331 
L 781 2994 
L 231 2994 
L 231 3322 
L 1356 3322 
L 1356 2731 
Q 1516 3063 1762 3238 
Q 2009 3413 2322 3413 
Q 2709 3413 2968 3220 
Q 3228 3028 3316 2675 
z
" id="DejaVuSerif-6d" transform="scale(0.015625)"/>
     </defs>
     <use xlink:href="#DejaVuSerif-31"/>
     <use x="63.623047" xlink:href="#DejaVuSerif-2e"/>
     <use x="95.410156" xlink:href="#DejaVuSerif-6d"/>
    </g>
   </g>
   <g id="PathCollection_8">
    <path d="M 578.72 198.422519 
L 581.458613 192.945293 
L 575.981387 192.945293 
z
" style="fill:none;stroke:#b24200;"/>
   </g>
   <g id="text_25">
    <!-- 1.s -->
    <g transform="translate(602.12 199.096406)scale(0.13 -0.13)">
     <defs>
      <path d="M 359 184 
L 359 959 
L 691 959 
Q 703 588 923 403 
Q 1144 219 1575 219 
Q 1963 219 2166 364 
Q 2369 509 2369 788 
Q 2369 1006 2220 1140 
Q 2072 1275 1594 1428 
L 1178 1569 
Q 750 1706 558 1912 
Q 366 2119 366 2438 
Q 366 2894 700 3153 
Q 1034 3413 1625 3413 
Q 1888 3413 2178 3344 
Q 2469 3275 2778 3144 
L 2778 2419 
L 2447 2419 
Q 2434 2741 2221 2922 
Q 2009 3103 1644 3103 
Q 1281 3103 1095 2975 
Q 909 2847 909 2591 
Q 909 2381 1050 2254 
Q 1191 2128 1613 1997 
L 2069 1856 
Q 2541 1709 2748 1489 
Q 2956 1269 2956 922 
Q 2956 450 2595 179 
Q 2234 -91 1600 -91 
Q 1278 -91 972 -22 
Q 666 47 359 184 
z
" id="DejaVuSerif-73" transform="scale(0.015625)"/>
     </defs>
     <use xlink:href="#DejaVuSerif-31"/>
     <use x="63.623047" xlink:href="#DejaVuSerif-2e"/>
     <use x="95.410156" xlink:href="#DejaVuSerif-73"/>
    </g>
   </g>
  </g>
 </g>
 <defs>
  <clipPath id="pf58472b86e">
   <rect height="240.795368" width="486" x="64.8" y="61.402316"/>
  </clipPath>
 </defs>
</svg>
