<?xml version="1.0" encoding="utf-8" standalone="no"?>
<!DOCTYPE svg PUBLIC "-//W3C//DTD SVG 1.1//EN"
  "http://www.w3.org/Graphics/SVG/1.1/DTD/svg11.dtd">
<svg height="360pt" version="1.1" viewBox="0 0 648 360" width="648pt" xmlns="http://www.w3.org/2000/svg" xmlns:xlink="http://www.w3.org/1999/xlink">
 <metadata>
  <rdf:RDF xmlns:cc="http://creativecommons.org/ns#" xmlns:dc="http://purl.org/dc/elements/1.1/" xmlns:rdf="http://www.w3.org/1999/02/22-rdf-syntax-ns#">
   <cc:Work>
    <dc:type rdf:resource="http://purl.org/dc/dcmitype/StillImage"/>
    <dc:date>2021-10-17T20:34:31.562821</dc:date>
    <dc:format>image/svg+xml</dc:format>
    <dc:creator>
     <cc:Agent>
      <dc:title>Matplotlib v3.4.3, https://matplotlib.org/</dc:title>
     </cc:Agent>
    </dc:creator>
   </cc:Work>
  </rdf:RDF>
 </metadata>
 <defs>
  <style type="text/css">*{stroke-linecap:butt;stroke-linejoin:round;}</style>
 </defs>
 <g id="figure_1">
  <g id="patch_1">
   <path d="M 0 360 
L 648 360 
L 648 0 
L 0 0 
z
" style="fill:#ffffff;"/>
  </g>
  <g id="axes_1">
   <g id="patch_2">
    <path d="M 64.8 302.173628 
L 550.8 302.173628 
L 550.8 61.426372 
L 64.8 61.426372 
z
" style="fill:#ffffff;"/>
   </g>
   <g id="PathCollection_1">
    <defs>
     <path d="M 0 2.738613 
C 0.726289 2.738613 1.422928 2.450055 1.936492 1.936492 
C 2.450055 1.422928 2.738613 0.726289 2.738613 -0 
C 2.738613 -0.726289 2.450055 -1.422928 1.936492 -1.936492 
C 1.422928 -2.450055 0.726289 -2.738613 0 -2.738613 
C -0.726289 -2.738613 -1.422928 -2.450055 -1.936492 -1.936492 
C -2.450055 -1.422928 -2.738613 -0.726289 -2.738613 0 
C -2.738613 0.726289 -2.450055 1.422928 -1.936492 1.936492 
C -1.422928 2.450055 -0.726289 2.738613 0 2.738613 
z
" id="C0_0_2f79993825"/>
    </defs>
    <g clip-path="url(#pf74b96ba52)">
     <use style="fill:none;stroke:#3e0000;" x="347.777899" xlink:href="#C0_0_2f79993825" y="288.234292"/>
    </g>
    <g clip-path="url(#pf74b96ba52)">
     <use style="fill:none;stroke:#3e0000;" x="277.390922" xlink:href="#C0_0_2f79993825" y="285.885318"/>
    </g>
   </g>
   <g id="PathCollection_2">
    <path clip-path="url(#pf74b96ba52)" d="M 369.775225 292.48184 
L 372.099015 288.608856 
L 369.775225 284.735873 
L 367.451435 288.608856 
z
" style="fill:none;stroke:#0042b2;"/>
   </g>
   <g id="PathCollection_3">
    <defs>
     <path id="mf7a3025148" style="stroke:#0042b2;stroke-width:1.5;"/>
    </defs>
    <g clip-path="url(#pf74b96ba52)">
     <use style="fill:#0042b2;stroke:#0042b2;stroke-width:1.5;" x="277.390922" xlink:href="#mf7a3025148" y="285.885318"/>
     <use style="fill:#0042b2;stroke:#0042b2;stroke-width:1.5;" x="369.775225" xlink:href="#mf7a3025148" y="288.608856"/>
    </g>
   </g>
   <g id="line2d_1">
    <path clip-path="url(#pf74b96ba52)" d="M 347.777899 288.234292 
L 277.390922 285.885318 
" style="fill:none;stroke:#8b0000;stroke-linecap:square;stroke-opacity:0.65;"/>
   </g>
   <g id="line2d_2">
    <path clip-path="url(#pf74b96ba52)" d="M 369.775225 288.608856 
" style="fill:none;stroke:#1f8fff;stroke-linecap:square;stroke-opacity:0.65;"/>
   </g>
   <g id="line2d_3">
    <path clip-path="url(#pf74b96ba52)" d="M 277.390922 285.885318 
L 369.775225 288.608856 
" style="fill:none;stroke:#1f8fff;stroke-linecap:square;stroke-opacity:0.65;"/>
   </g>
   <g id="line2d_4">
    <path clip-path="url(#pf74b96ba52)" d="M 116.980596 228.207586 
L 94.182288 74.991144 
L 111.321791 77.167075 
L 131.518521 175.17644 
L 173.525198 237.143628 
L 348.491454 278.347976 
L 521.417712 285.336936 
" style="fill:none;stroke:#ff8f1f;stroke-linecap:square;stroke-opacity:0.65;"/>
   </g>
   <g id="line2d_5">
    <path clip-path="url(#pf74b96ba52)" d="M 277.390922 285.885318 
L 116.980596 228.207586 
" style="fill:none;stroke:#ff8f1f;stroke-linecap:square;stroke-opacity:0.65;"/>
   </g>
   <g id="matplotlib.axis_1">
    <g id="xtick_1">
     <g id="line2d_6">
      <path clip-path="url(#pf74b96ba52)" d="M 521.417712 302.173628 
L 521.417712 61.426372 
" style="fill:none;stroke:#d3d3d3;stroke-dasharray:5.12,1.28,0.8,1.28;stroke-dashoffset:0;stroke-width:0.8;"/>
     </g>
     <g id="line2d_7">
      <defs>
       <path d="M 0 0 
L 0 -3.5 
" id="me7dfb76d24" style="stroke:#000000;stroke-width:0.8;"/>
      </defs>
      <g>
       <use style="stroke:#000000;stroke-width:0.8;" x="521.417712" xlink:href="#me7dfb76d24" y="302.173628"/>
      </g>
     </g>
     <g id="text_1">
      <!-- 1.4 -->
      <g transform="translate(513.46615 314.772066)scale(0.1 -0.1)">
       <defs>
        <path d="M 909 0 
L 909 331 
L 1722 331 
L 1722 4213 
L 781 3603 
L 781 4013 
L 1919 4750 
L 2350 4750 
L 2350 331 
L 3163 331 
L 3163 0 
L 909 0 
z
" id="DejaVuSerif-31" transform="scale(0.015625)"/>
        <path d="M 603 325 
Q 603 500 722 622 
Q 841 744 1019 744 
Q 1191 744 1312 622 
Q 1434 500 1434 325 
Q 1434 153 1312 31 
Q 1191 -91 1019 -91 
Q 841 -91 722 29 
Q 603 150 603 325 
z
" id="DejaVuSerif-2e" transform="scale(0.015625)"/>
        <path d="M 2234 1581 
L 2234 4063 
L 641 1581 
L 2234 1581 
z
M 3609 0 
L 1484 0 
L 1484 331 
L 2234 331 
L 2234 1247 
L 197 1247 
L 197 1588 
L 2241 4750 
L 2859 4750 
L 2859 1581 
L 3750 1581 
L 3750 1247 
L 2859 1247 
L 2859 331 
L 3609 331 
L 3609 0 
z
" id="DejaVuSerif-34" transform="scale(0.015625)"/>
       </defs>
       <use xlink:href="#DejaVuSerif-31"/>
       <use x="63.623047" xlink:href="#DejaVuSerif-2e"/>
       <use x="95.410156" xlink:href="#DejaVuSerif-34"/>
      </g>
     </g>
    </g>
    <g id="xtick_2">
     <g id="line2d_8">
      <path clip-path="url(#pf74b96ba52)" d="M 473.94711 302.173628 
L 473.94711 61.426372 
" style="fill:none;stroke:#d3d3d3;stroke-dasharray:5.12,1.28,0.8,1.28;stroke-dashoffset:0;stroke-width:0.8;"/>
     </g>
     <g id="line2d_9">
      <g>
       <use style="stroke:#000000;stroke-width:0.8;" x="473.94711" xlink:href="#me7dfb76d24" y="302.173628"/>
      </g>
     </g>
     <g id="text_2">
      <!-- 1.2 -->
      <g transform="translate(465.995547 314.772066)scale(0.1 -0.1)">
       <defs>
        <path d="M 819 3553 
L 469 3553 
L 469 4384 
Q 803 4563 1142 4656 
Q 1481 4750 1806 4750 
Q 2534 4750 2956 4397 
Q 3378 4044 3378 3438 
Q 3378 2753 2422 1800 
Q 2347 1728 2309 1691 
L 1131 513 
L 3078 513 
L 3078 1088 
L 3444 1088 
L 3444 0 
L 434 0 
L 434 341 
L 1850 1753 
Q 2319 2222 2519 2614 
Q 2719 3006 2719 3438 
Q 2719 3909 2473 4175 
Q 2228 4441 1797 4441 
Q 1350 4441 1106 4219 
Q 863 3997 819 3553 
z
" id="DejaVuSerif-32" transform="scale(0.015625)"/>
       </defs>
       <use xlink:href="#DejaVuSerif-31"/>
       <use x="63.623047" xlink:href="#DejaVuSerif-2e"/>
       <use x="95.410156" xlink:href="#DejaVuSerif-32"/>
      </g>
     </g>
    </g>
    <g id="xtick_3">
     <g id="line2d_10">
      <path clip-path="url(#pf74b96ba52)" d="M 426.476507 302.173628 
L 426.476507 61.426372 
" style="fill:none;stroke:#d3d3d3;stroke-dasharray:5.12,1.28,0.8,1.28;stroke-dashoffset:0;stroke-width:0.8;"/>
     </g>
     <g id="line2d_11">
      <g>
       <use style="stroke:#000000;stroke-width:0.8;" x="426.476507" xlink:href="#me7dfb76d24" y="302.173628"/>
      </g>
     </g>
     <g id="text_3">
      <!-- 1.1 -->
      <g transform="translate(418.524944 314.772066)scale(0.1 -0.1)">
       <use xlink:href="#DejaVuSerif-31"/>
       <use x="63.623047" xlink:href="#DejaVuSerif-2e"/>
       <use x="95.410156" xlink:href="#DejaVuSerif-31"/>
      </g>
     </g>
    </g>
    <g id="xtick_4">
     <g id="line2d_12">
      <path clip-path="url(#pf74b96ba52)" d="M 379.005904 302.173628 
L 379.005904 61.426372 
" style="fill:none;stroke:#d3d3d3;stroke-dasharray:5.12,1.28,0.8,1.28;stroke-dashoffset:0;stroke-width:0.8;"/>
     </g>
     <g id="line2d_13">
      <g>
       <use style="stroke:#000000;stroke-width:0.8;" x="379.005904" xlink:href="#me7dfb76d24" y="302.173628"/>
      </g>
     </g>
     <g id="text_4">
      <!-- 0.9 -->
      <g transform="translate(371.054342 314.772066)scale(0.1 -0.1)">
       <defs>
        <path d="M 2034 219 
Q 2513 219 2750 744 
Q 2988 1269 2988 2328 
Q 2988 3391 2750 3916 
Q 2513 4441 2034 4441 
Q 1556 4441 1318 3916 
Q 1081 3391 1081 2328 
Q 1081 1269 1318 744 
Q 1556 219 2034 219 
z
M 2034 -91 
Q 1275 -91 848 546 
Q 422 1184 422 2328 
Q 422 3475 848 4112 
Q 1275 4750 2034 4750 
Q 2797 4750 3222 4112 
Q 3647 3475 3647 2328 
Q 3647 1184 3222 546 
Q 2797 -91 2034 -91 
z
" id="DejaVuSerif-30" transform="scale(0.015625)"/>
        <path d="M 2994 2091 
Q 2784 1856 2512 1740 
Q 2241 1625 1900 1625 
Q 1206 1625 804 2044 
Q 403 2463 403 3188 
Q 403 3897 839 4323 
Q 1275 4750 2003 4750 
Q 2794 4750 3217 4161 
Q 3641 3572 3641 2478 
Q 3641 1253 3137 581 
Q 2634 -91 1722 -91 
Q 1475 -91 1203 -44 
Q 931 3 647 97 
L 647 872 
L 997 872 
Q 1038 556 1241 387 
Q 1444 219 1784 219 
Q 2391 219 2687 676 
Q 2984 1134 2994 2091 
z
M 1978 4441 
Q 1534 4441 1298 4117 
Q 1063 3794 1063 3188 
Q 1063 2581 1298 2256 
Q 1534 1931 1978 1931 
Q 2422 1931 2658 2245 
Q 2894 2559 2894 3150 
Q 2894 3772 2656 4106 
Q 2419 4441 1978 4441 
z
" id="DejaVuSerif-39" transform="scale(0.015625)"/>
       </defs>
       <use xlink:href="#DejaVuSerif-30"/>
       <use x="63.623047" xlink:href="#DejaVuSerif-2e"/>
       <use x="95.410156" xlink:href="#DejaVuSerif-39"/>
      </g>
     </g>
    </g>
    <g id="xtick_5">
     <g id="line2d_14">
      <path clip-path="url(#pf74b96ba52)" d="M 331.535301 302.173628 
L 331.535301 61.426372 
" style="fill:none;stroke:#d3d3d3;stroke-dasharray:5.12,1.28,0.8,1.28;stroke-dashoffset:0;stroke-width:0.8;"/>
     </g>
     <g id="line2d_15">
      <g>
       <use style="stroke:#000000;stroke-width:0.8;" x="331.535301" xlink:href="#me7dfb76d24" y="302.173628"/>
      </g>
     </g>
     <g id="text_5">
      <!-- 0.8 -->
      <g transform="translate(323.583739 314.772066)scale(0.1 -0.1)">
       <defs>
        <path d="M 2981 1275 
Q 2981 1775 2732 2051 
Q 2484 2328 2034 2328 
Q 1584 2328 1336 2051 
Q 1088 1775 1088 1275 
Q 1088 772 1336 495 
Q 1584 219 2034 219 
Q 2484 219 2732 495 
Q 2981 772 2981 1275 
z
M 2853 3541 
Q 2853 3966 2637 4203 
Q 2422 4441 2034 4441 
Q 1650 4441 1433 4203 
Q 1216 3966 1216 3541 
Q 1216 3113 1433 2875 
Q 1650 2638 2034 2638 
Q 2422 2638 2637 2875 
Q 2853 3113 2853 3541 
z
M 2516 2484 
Q 3047 2413 3344 2092 
Q 3641 1772 3641 1275 
Q 3641 619 3225 264 
Q 2809 -91 2034 -91 
Q 1263 -91 845 264 
Q 428 619 428 1275 
Q 428 1772 725 2092 
Q 1022 2413 1556 2484 
Q 1084 2569 832 2842 
Q 581 3116 581 3541 
Q 581 4103 968 4426 
Q 1356 4750 2034 4750 
Q 2713 4750 3100 4426 
Q 3488 4103 3488 3541 
Q 3488 3116 3236 2842 
Q 2984 2569 2516 2484 
z
" id="DejaVuSerif-38" transform="scale(0.015625)"/>
       </defs>
       <use xlink:href="#DejaVuSerif-30"/>
       <use x="63.623047" xlink:href="#DejaVuSerif-2e"/>
       <use x="95.410156" xlink:href="#DejaVuSerif-38"/>
      </g>
     </g>
    </g>
    <g id="xtick_6">
     <g id="line2d_16">
      <path clip-path="url(#pf74b96ba52)" d="M 284.064699 302.173628 
L 284.064699 61.426372 
" style="fill:none;stroke:#d3d3d3;stroke-dasharray:5.12,1.28,0.8,1.28;stroke-dashoffset:0;stroke-width:0.8;"/>
     </g>
     <g id="line2d_17">
      <g>
       <use style="stroke:#000000;stroke-width:0.8;" x="284.064699" xlink:href="#me7dfb76d24" y="302.173628"/>
      </g>
     </g>
     <g id="text_6">
      <!-- 0.6 -->
      <g transform="translate(276.113136 314.772066)scale(0.1 -0.1)">
       <defs>
        <path d="M 2094 219 
Q 2534 219 2771 542 
Q 3009 866 3009 1472 
Q 3009 2078 2771 2401 
Q 2534 2725 2094 2725 
Q 1647 2725 1412 2412 
Q 1178 2100 1178 1509 
Q 1178 888 1415 553 
Q 1653 219 2094 219 
z
M 1075 2569 
Q 1288 2803 1556 2918 
Q 1825 3034 2163 3034 
Q 2859 3034 3264 2615 
Q 3669 2197 3669 1472 
Q 3669 763 3233 336 
Q 2797 -91 2069 -91 
Q 1278 -91 853 498 
Q 428 1088 428 2181 
Q 428 3406 931 4078 
Q 1434 4750 2350 4750 
Q 2597 4750 2869 4703 
Q 3141 4656 3425 4563 
L 3425 3794 
L 3072 3794 
Q 3034 4109 2831 4275 
Q 2628 4441 2284 4441 
Q 1678 4441 1381 3981 
Q 1084 3522 1075 2569 
z
" id="DejaVuSerif-36" transform="scale(0.015625)"/>
       </defs>
       <use xlink:href="#DejaVuSerif-30"/>
       <use x="63.623047" xlink:href="#DejaVuSerif-2e"/>
       <use x="95.410156" xlink:href="#DejaVuSerif-36"/>
      </g>
     </g>
    </g>
    <g id="xtick_7">
     <g id="line2d_18">
      <path clip-path="url(#pf74b96ba52)" d="M 236.594096 302.173628 
L 236.594096 61.426372 
" style="fill:none;stroke:#d3d3d3;stroke-dasharray:5.12,1.28,0.8,1.28;stroke-dashoffset:0;stroke-width:0.8;"/>
     </g>
     <g id="line2d_19">
      <g>
       <use style="stroke:#000000;stroke-width:0.8;" x="236.594096" xlink:href="#me7dfb76d24" y="302.173628"/>
      </g>
     </g>
     <g id="text_7">
      <!-- 0.5 -->
      <g transform="translate(228.642533 314.772066)scale(0.1 -0.1)">
       <defs>
        <path d="M 3219 4666 
L 3219 4153 
L 1081 4153 
L 1081 2816 
Q 1244 2928 1461 2984 
Q 1678 3041 1947 3041 
Q 2703 3041 3140 2622 
Q 3578 2203 3578 1478 
Q 3578 738 3136 323 
Q 2694 -91 1894 -91 
Q 1572 -91 1234 -12 
Q 897 66 544 225 
L 544 1131 
L 897 1131 
Q 925 688 1179 453 
Q 1434 219 1894 219 
Q 2388 219 2653 544 
Q 2919 869 2919 1478 
Q 2919 2084 2655 2407 
Q 2391 2731 1894 2731 
Q 1613 2731 1398 2631 
Q 1184 2531 1019 2322 
L 750 2322 
L 750 4666 
L 3219 4666 
z
" id="DejaVuSerif-35" transform="scale(0.015625)"/>
       </defs>
       <use xlink:href="#DejaVuSerif-30"/>
       <use x="63.623047" xlink:href="#DejaVuSerif-2e"/>
       <use x="95.410156" xlink:href="#DejaVuSerif-35"/>
      </g>
     </g>
    </g>
    <g id="xtick_8">
     <g id="line2d_20">
      <path clip-path="url(#pf74b96ba52)" d="M 189.123493 302.173628 
L 189.123493 61.426372 
" style="fill:none;stroke:#d3d3d3;stroke-dasharray:5.12,1.28,0.8,1.28;stroke-dashoffset:0;stroke-width:0.8;"/>
     </g>
     <g id="line2d_21">
      <g>
       <use style="stroke:#000000;stroke-width:0.8;" x="189.123493" xlink:href="#me7dfb76d24" y="302.173628"/>
      </g>
     </g>
     <g id="text_8">
      <!-- 0.4 -->
      <g transform="translate(181.171931 314.772066)scale(0.1 -0.1)">
       <use xlink:href="#DejaVuSerif-30"/>
       <use x="63.623047" xlink:href="#DejaVuSerif-2e"/>
       <use x="95.410156" xlink:href="#DejaVuSerif-34"/>
      </g>
     </g>
    </g>
    <g id="xtick_9">
     <g id="line2d_22">
      <path clip-path="url(#pf74b96ba52)" d="M 141.65289 302.173628 
L 141.65289 61.426372 
" style="fill:none;stroke:#d3d3d3;stroke-dasharray:5.12,1.28,0.8,1.28;stroke-dashoffset:0;stroke-width:0.8;"/>
     </g>
     <g id="line2d_23">
      <g>
       <use style="stroke:#000000;stroke-width:0.8;" x="141.65289" xlink:href="#me7dfb76d24" y="302.173628"/>
      </g>
     </g>
     <g id="text_9">
      <!-- 0.2 -->
      <g transform="translate(133.701328 314.772066)scale(0.1 -0.1)">
       <use xlink:href="#DejaVuSerif-30"/>
       <use x="63.623047" xlink:href="#DejaVuSerif-2e"/>
       <use x="95.410156" xlink:href="#DejaVuSerif-32"/>
      </g>
     </g>
    </g>
    <g id="xtick_10">
     <g id="line2d_24">
      <path clip-path="url(#pf74b96ba52)" d="M 94.182288 302.173628 
L 94.182288 61.426372 
" style="fill:none;stroke:#d3d3d3;stroke-dasharray:5.12,1.28,0.8,1.28;stroke-dashoffset:0;stroke-width:0.8;"/>
     </g>
     <g id="line2d_25">
      <g>
       <use style="stroke:#000000;stroke-width:0.8;" x="94.182288" xlink:href="#me7dfb76d24" y="302.173628"/>
      </g>
     </g>
     <g id="text_10">
      <!-- 0.1 -->
      <g transform="translate(86.230725 314.772066)scale(0.1 -0.1)">
       <use xlink:href="#DejaVuSerif-30"/>
       <use x="63.623047" xlink:href="#DejaVuSerif-2e"/>
       <use x="95.410156" xlink:href="#DejaVuSerif-31"/>
      </g>
     </g>
    </g>
    <g id="text_11">
     <!-- v$_0$ [m$^3$/n] -->
     <g transform="translate(280.44 337.076128)scale(0.12 -0.12)">
      <defs>
       <path d="M 1581 0 
L 359 2988 
L -19 2988 
L -19 3322 
L 1509 3322 
L 1509 2988 
L 978 2988 
L 1913 703 
L 2847 2988 
L 2350 2988 
L 2350 3322 
L 3597 3322 
L 3597 2988 
L 3225 2988 
L 2003 0 
L 1581 0 
z
" id="DejaVuSerif-76" transform="scale(0.015625)"/>
       <path id="DejaVuSerif-20" transform="scale(0.015625)"/>
       <path d="M 550 4863 
L 2003 4863 
L 2003 4531 
L 1147 4531 
L 1147 -513 
L 2003 -513 
L 2003 -844 
L 550 -844 
L 550 4863 
z
" id="DejaVuSerif-5b" transform="scale(0.015625)"/>
       <path d="M 3316 2675 
Q 3481 3041 3739 3227 
Q 3997 3413 4341 3413 
Q 4863 3413 5119 3089 
Q 5375 2766 5375 2113 
L 5375 331 
L 5894 331 
L 5894 0 
L 4300 0 
L 4300 331 
L 4800 331 
L 4800 2047 
Q 4800 2556 4650 2772 
Q 4500 2988 4153 2988 
Q 3769 2988 3567 2697 
Q 3366 2406 3366 1850 
L 3366 331 
L 3866 331 
L 3866 0 
L 2291 0 
L 2291 331 
L 2791 331 
L 2791 2069 
Q 2791 2566 2641 2777 
Q 2491 2988 2144 2988 
Q 1759 2988 1557 2697 
Q 1356 2406 1356 1850 
L 1356 331 
L 1856 331 
L 1856 0 
L 263 0 
L 263 331 
L 781 331 
L 781 2994 
L 231 2994 
L 231 3322 
L 1356 3322 
L 1356 2731 
Q 1516 3063 1762 3238 
Q 2009 3413 2322 3413 
Q 2709 3413 2968 3220 
Q 3228 3028 3316 2675 
z
" id="DejaVuSerif-6d" transform="scale(0.015625)"/>
       <path d="M 622 4469 
Q 988 4606 1323 4678 
Q 1659 4750 1953 4750 
Q 2638 4750 3022 4454 
Q 3406 4159 3406 3634 
Q 3406 3213 3140 2930 
Q 2875 2647 2388 2547 
Q 2963 2466 3280 2130 
Q 3597 1794 3597 1259 
Q 3597 606 3158 257 
Q 2719 -91 1894 -91 
Q 1528 -91 1179 -12 
Q 831 66 488 225 
L 488 1131 
L 838 1131 
Q 869 681 1141 450 
Q 1413 219 1906 219 
Q 2384 219 2661 495 
Q 2938 772 2938 1253 
Q 2938 1803 2653 2086 
Q 2369 2369 1819 2369 
L 1522 2369 
L 1522 2688 
L 1678 2688 
Q 2225 2688 2498 2914 
Q 2772 3141 2772 3597 
Q 2772 4006 2547 4223 
Q 2322 4441 1900 4441 
Q 1478 4441 1245 4241 
Q 1013 4041 972 3647 
L 622 3647 
L 622 4469 
z
" id="DejaVuSerif-33" transform="scale(0.015625)"/>
       <path d="M 1656 4666 
L 2156 4666 
L 500 -594 
L 0 -594 
L 1656 4666 
z
" id="DejaVuSerif-2f" transform="scale(0.015625)"/>
       <path d="M 263 0 
L 263 331 
L 781 331 
L 781 2988 
L 231 2988 
L 231 3322 
L 1356 3322 
L 1356 2731 
Q 1516 3069 1770 3241 
Q 2025 3413 2363 3413 
Q 2913 3413 3172 3097 
Q 3431 2781 3431 2113 
L 3431 331 
L 3944 331 
L 3944 0 
L 2356 0 
L 2356 331 
L 2853 331 
L 2853 1931 
Q 2853 2541 2703 2767 
Q 2553 2994 2175 2994 
Q 1775 2994 1565 2701 
Q 1356 2409 1356 1850 
L 1356 331 
L 1856 331 
L 1856 0 
L 263 0 
z
" id="DejaVuSerif-6e" transform="scale(0.015625)"/>
       <path d="M 1947 4863 
L 1947 -844 
L 494 -844 
L 494 -513 
L 1350 -513 
L 1350 4531 
L 494 4531 
L 494 4863 
L 1947 4863 
z
" id="DejaVuSerif-5d" transform="scale(0.015625)"/>
      </defs>
      <use transform="translate(0 0.7125)" xlink:href="#DejaVuSerif-76"/>
      <use transform="translate(57.4025 -14.859375)scale(0.7)" xlink:href="#DejaVuSerif-30"/>
      <use transform="translate(104.533945 0.7125)" xlink:href="#DejaVuSerif-20"/>
      <use transform="translate(136.321055 0.7125)" xlink:href="#DejaVuSerif-5b"/>
      <use transform="translate(175.334727 0.7125)" xlink:href="#DejaVuSerif-6d"/>
      <use transform="translate(271.067305 37.046875)scale(0.7)" xlink:href="#DejaVuSerif-33"/>
      <use transform="translate(318.19875 0.7125)" xlink:href="#DejaVuSerif-2f"/>
      <use transform="translate(351.890156 0.7125)" xlink:href="#DejaVuSerif-6e"/>
      <use transform="translate(416.294453 0.7125)" xlink:href="#DejaVuSerif-5d"/>
     </g>
    </g>
   </g>
   <g id="matplotlib.axis_2">
    <g id="ytick_1">
     <g id="line2d_26">
      <path clip-path="url(#pf74b96ba52)" d="M 64.8 74.991144 
L 550.8 74.991144 
" style="fill:none;stroke:#d3d3d3;stroke-dasharray:5.12,1.28,0.8,1.28;stroke-dashoffset:0;stroke-width:0.8;"/>
     </g>
     <g id="line2d_27">
      <defs>
       <path d="M 0 0 
L 3.5 0 
" id="m36981fb769" style="stroke:#000000;stroke-width:0.8;"/>
      </defs>
      <g>
       <use style="stroke:#000000;stroke-width:0.8;" x="64.8" xlink:href="#m36981fb769" y="74.991144"/>
      </g>
     </g>
     <g id="text_12">
      <!-- 4919.3 -->
      <g transform="translate(24.809375 78.790363)scale(0.1 -0.1)">
       <use xlink:href="#DejaVuSerif-34"/>
       <use x="63.623047" xlink:href="#DejaVuSerif-39"/>
       <use x="127.246094" xlink:href="#DejaVuSerif-31"/>
       <use x="190.869141" xlink:href="#DejaVuSerif-39"/>
       <use x="254.492188" xlink:href="#DejaVuSerif-2e"/>
       <use x="286.279297" xlink:href="#DejaVuSerif-33"/>
      </g>
     </g>
    </g>
    <g id="ytick_2">
     <g id="line2d_28">
      <path clip-path="url(#pf74b96ba52)" d="M 64.8 98.726445 
L 550.8 98.726445 
" style="fill:none;stroke:#d3d3d3;stroke-dasharray:5.12,1.28,0.8,1.28;stroke-dashoffset:0;stroke-width:0.8;"/>
     </g>
     <g id="line2d_29">
      <g>
       <use style="stroke:#000000;stroke-width:0.8;" x="64.8" xlink:href="#m36981fb769" y="98.726445"/>
      </g>
     </g>
     <g id="text_13">
      <!-- 4382.7 -->
      <g transform="translate(24.809375 102.525664)scale(0.1 -0.1)">
       <defs>
        <path d="M 3609 4347 
L 1784 0 
L 1319 0 
L 3059 4153 
L 903 4153 
L 903 3578 
L 538 3578 
L 538 4666 
L 3609 4666 
L 3609 4347 
z
" id="DejaVuSerif-37" transform="scale(0.015625)"/>
       </defs>
       <use xlink:href="#DejaVuSerif-34"/>
       <use x="63.623047" xlink:href="#DejaVuSerif-33"/>
       <use x="127.246094" xlink:href="#DejaVuSerif-38"/>
       <use x="190.869141" xlink:href="#DejaVuSerif-32"/>
       <use x="254.492188" xlink:href="#DejaVuSerif-2e"/>
       <use x="286.279297" xlink:href="#DejaVuSerif-37"/>
      </g>
     </g>
    </g>
    <g id="ytick_3">
     <g id="line2d_30">
      <path clip-path="url(#pf74b96ba52)" d="M 64.8 122.461747 
L 550.8 122.461747 
" style="fill:none;stroke:#d3d3d3;stroke-dasharray:5.12,1.28,0.8,1.28;stroke-dashoffset:0;stroke-width:0.8;"/>
     </g>
     <g id="line2d_31">
      <g>
       <use style="stroke:#000000;stroke-width:0.8;" x="64.8" xlink:href="#m36981fb769" y="122.461747"/>
      </g>
     </g>
     <g id="text_14">
      <!-- 3846.1 -->
      <g transform="translate(24.809375 126.260965)scale(0.1 -0.1)">
       <use xlink:href="#DejaVuSerif-33"/>
       <use x="63.623047" xlink:href="#DejaVuSerif-38"/>
       <use x="127.246094" xlink:href="#DejaVuSerif-34"/>
       <use x="190.869141" xlink:href="#DejaVuSerif-36"/>
       <use x="254.492188" xlink:href="#DejaVuSerif-2e"/>
       <use x="286.279297" xlink:href="#DejaVuSerif-31"/>
      </g>
     </g>
    </g>
    <g id="ytick_4">
     <g id="line2d_32">
      <path clip-path="url(#pf74b96ba52)" d="M 64.8 146.197048 
L 550.8 146.197048 
" style="fill:none;stroke:#d3d3d3;stroke-dasharray:5.12,1.28,0.8,1.28;stroke-dashoffset:0;stroke-width:0.8;"/>
     </g>
     <g id="line2d_33">
      <g>
       <use style="stroke:#000000;stroke-width:0.8;" x="64.8" xlink:href="#m36981fb769" y="146.197048"/>
      </g>
     </g>
     <g id="text_15">
      <!-- 3309.5 -->
      <g transform="translate(24.809375 149.996267)scale(0.1 -0.1)">
       <use xlink:href="#DejaVuSerif-33"/>
       <use x="63.623047" xlink:href="#DejaVuSerif-33"/>
       <use x="127.246094" xlink:href="#DejaVuSerif-30"/>
       <use x="190.869141" xlink:href="#DejaVuSerif-39"/>
       <use x="254.492188" xlink:href="#DejaVuSerif-2e"/>
       <use x="286.279297" xlink:href="#DejaVuSerif-35"/>
      </g>
     </g>
    </g>
    <g id="ytick_5">
     <g id="line2d_34">
      <path clip-path="url(#pf74b96ba52)" d="M 64.8 169.932349 
L 550.8 169.932349 
" style="fill:none;stroke:#d3d3d3;stroke-dasharray:5.12,1.28,0.8,1.28;stroke-dashoffset:0;stroke-width:0.8;"/>
     </g>
     <g id="line2d_35">
      <g>
       <use style="stroke:#000000;stroke-width:0.8;" x="64.8" xlink:href="#m36981fb769" y="169.932349"/>
      </g>
     </g>
     <g id="text_16">
      <!-- 2772.9 -->
      <g transform="translate(24.809375 173.731568)scale(0.1 -0.1)">
       <use xlink:href="#DejaVuSerif-32"/>
       <use x="63.623047" xlink:href="#DejaVuSerif-37"/>
       <use x="127.246094" xlink:href="#DejaVuSerif-37"/>
       <use x="190.869141" xlink:href="#DejaVuSerif-32"/>
       <use x="254.492188" xlink:href="#DejaVuSerif-2e"/>
       <use x="286.279297" xlink:href="#DejaVuSerif-39"/>
      </g>
     </g>
    </g>
    <g id="ytick_6">
     <g id="line2d_36">
      <path clip-path="url(#pf74b96ba52)" d="M 64.8 193.667651 
L 550.8 193.667651 
" style="fill:none;stroke:#d3d3d3;stroke-dasharray:5.12,1.28,0.8,1.28;stroke-dashoffset:0;stroke-width:0.8;"/>
     </g>
     <g id="line2d_37">
      <g>
       <use style="stroke:#000000;stroke-width:0.8;" x="64.8" xlink:href="#m36981fb769" y="193.667651"/>
      </g>
     </g>
     <g id="text_17">
      <!-- 2236.3 -->
      <g transform="translate(24.809375 197.466869)scale(0.1 -0.1)">
       <use xlink:href="#DejaVuSerif-32"/>
       <use x="63.623047" xlink:href="#DejaVuSerif-32"/>
       <use x="127.246094" xlink:href="#DejaVuSerif-33"/>
       <use x="190.869141" xlink:href="#DejaVuSerif-36"/>
       <use x="254.492188" xlink:href="#DejaVuSerif-2e"/>
       <use x="286.279297" xlink:href="#DejaVuSerif-33"/>
      </g>
     </g>
    </g>
    <g id="ytick_7">
     <g id="line2d_38">
      <path clip-path="url(#pf74b96ba52)" d="M 64.8 217.402952 
L 550.8 217.402952 
" style="fill:none;stroke:#d3d3d3;stroke-dasharray:5.12,1.28,0.8,1.28;stroke-dashoffset:0;stroke-width:0.8;"/>
     </g>
     <g id="line2d_39">
      <g>
       <use style="stroke:#000000;stroke-width:0.8;" x="64.8" xlink:href="#m36981fb769" y="217.402952"/>
      </g>
     </g>
     <g id="text_18">
      <!-- 1699.7 -->
      <g transform="translate(24.809375 221.202171)scale(0.1 -0.1)">
       <use xlink:href="#DejaVuSerif-31"/>
       <use x="63.623047" xlink:href="#DejaVuSerif-36"/>
       <use x="127.246094" xlink:href="#DejaVuSerif-39"/>
       <use x="190.869141" xlink:href="#DejaVuSerif-39"/>
       <use x="254.492188" xlink:href="#DejaVuSerif-2e"/>
       <use x="286.279297" xlink:href="#DejaVuSerif-37"/>
      </g>
     </g>
    </g>
    <g id="ytick_8">
     <g id="line2d_40">
      <path clip-path="url(#pf74b96ba52)" d="M 64.8 241.138253 
L 550.8 241.138253 
" style="fill:none;stroke:#d3d3d3;stroke-dasharray:5.12,1.28,0.8,1.28;stroke-dashoffset:0;stroke-width:0.8;"/>
     </g>
     <g id="line2d_41">
      <g>
       <use style="stroke:#000000;stroke-width:0.8;" x="64.8" xlink:href="#m36981fb769" y="241.138253"/>
      </g>
     </g>
     <g id="text_19">
      <!-- 1163.1 -->
      <g transform="translate(24.809375 244.937472)scale(0.1 -0.1)">
       <use xlink:href="#DejaVuSerif-31"/>
       <use x="63.623047" xlink:href="#DejaVuSerif-31"/>
       <use x="127.246094" xlink:href="#DejaVuSerif-36"/>
       <use x="190.869141" xlink:href="#DejaVuSerif-33"/>
       <use x="254.492188" xlink:href="#DejaVuSerif-2e"/>
       <use x="286.279297" xlink:href="#DejaVuSerif-31"/>
      </g>
     </g>
    </g>
    <g id="ytick_9">
     <g id="line2d_42">
      <path clip-path="url(#pf74b96ba52)" d="M 64.8 264.873555 
L 550.8 264.873555 
" style="fill:none;stroke:#d3d3d3;stroke-dasharray:5.12,1.28,0.8,1.28;stroke-dashoffset:0;stroke-width:0.8;"/>
     </g>
     <g id="line2d_43">
      <g>
       <use style="stroke:#000000;stroke-width:0.8;" x="64.8" xlink:href="#m36981fb769" y="264.873555"/>
      </g>
     </g>
     <g id="text_20">
      <!-- 626.5 -->
      <g transform="translate(31.171875 268.672774)scale(0.1 -0.1)">
       <use xlink:href="#DejaVuSerif-36"/>
       <use x="63.623047" xlink:href="#DejaVuSerif-32"/>
       <use x="127.246094" xlink:href="#DejaVuSerif-36"/>
       <use x="190.869141" xlink:href="#DejaVuSerif-2e"/>
       <use x="222.65625" xlink:href="#DejaVuSerif-35"/>
      </g>
     </g>
    </g>
    <g id="ytick_10">
     <g id="line2d_44">
      <path clip-path="url(#pf74b96ba52)" d="M 64.8 288.608856 
L 550.8 288.608856 
" style="fill:none;stroke:#d3d3d3;stroke-dasharray:5.12,1.28,0.8,1.28;stroke-dashoffset:0;stroke-width:0.8;"/>
     </g>
     <g id="line2d_45">
      <g>
       <use style="stroke:#000000;stroke-width:0.8;" x="64.8" xlink:href="#m36981fb769" y="288.608856"/>
      </g>
     </g>
     <g id="text_21">
      <!-- 89.9 -->
      <g transform="translate(37.534375 292.408075)scale(0.1 -0.1)">
       <use xlink:href="#DejaVuSerif-38"/>
       <use x="63.623047" xlink:href="#DejaVuSerif-39"/>
       <use x="127.246094" xlink:href="#DejaVuSerif-2e"/>
       <use x="159.033203" xlink:href="#DejaVuSerif-39"/>
      </g>
     </g>
    </g>
    <g id="text_22">
     <!-- p$_0$ [kPa] -->
     <g transform="translate(17.289375 206.4)rotate(-90)scale(0.12 -0.12)">
      <defs>
       <path d="M 1313 1825 
L 1313 1497 
Q 1313 897 1542 583 
Q 1772 269 2209 269 
Q 2650 269 2876 622 
Q 3103 975 3103 1663 
Q 3103 2353 2876 2703 
Q 2650 3053 2209 3053 
Q 1772 3053 1542 2737 
Q 1313 2422 1313 1825 
z
M 738 2988 
L 184 2988 
L 184 3322 
L 1313 3322 
L 1313 2803 
Q 1481 3116 1742 3264 
Q 2003 3413 2388 3413 
Q 3000 3413 3387 2928 
Q 3775 2444 3775 1663 
Q 3775 881 3387 395 
Q 3000 -91 2388 -91 
Q 2003 -91 1742 57 
Q 1481 206 1313 519 
L 1313 -997 
L 1856 -997 
L 1856 -1331 
L 184 -1331 
L 184 -997 
L 738 -997 
L 738 2988 
z
" id="DejaVuSerif-70" transform="scale(0.015625)"/>
       <path d="M 1831 0 
L 219 0 
L 219 331 
L 738 331 
L 738 4531 
L 184 4531 
L 184 4863 
L 1313 4863 
L 1313 1697 
L 2713 2988 
L 2234 2988 
L 2234 3322 
L 3738 3322 
L 3738 2988 
L 3169 2988 
L 2181 2075 
L 3444 331 
L 3922 331 
L 3922 0 
L 2284 0 
L 2284 331 
L 2759 331 
L 1766 1697 
L 1313 1275 
L 1313 331 
L 1831 331 
L 1831 0 
z
" id="DejaVuSerif-6b" transform="scale(0.015625)"/>
       <path d="M 1581 2375 
L 2406 2375 
Q 2872 2375 3115 2626 
Q 3359 2878 3359 3353 
Q 3359 3831 3115 4081 
Q 2872 4331 2406 4331 
L 1581 4331 
L 1581 2375 
z
M 353 0 
L 353 331 
L 947 331 
L 947 4331 
L 353 4331 
L 353 4666 
L 2559 4666 
Q 3259 4666 3668 4311 
Q 4078 3956 4078 3353 
Q 4078 2753 3668 2397 
Q 3259 2041 2559 2041 
L 1581 2041 
L 1581 331 
L 2303 331 
L 2303 0 
L 353 0 
z
" id="DejaVuSerif-50" transform="scale(0.015625)"/>
       <path d="M 2547 1044 
L 2547 1747 
L 1806 1747 
Q 1378 1747 1168 1562 
Q 959 1378 959 997 
Q 959 650 1171 447 
Q 1384 244 1747 244 
Q 2106 244 2326 466 
Q 2547 688 2547 1044 
z
M 3122 2075 
L 3122 331 
L 3634 331 
L 3634 0 
L 2547 0 
L 2547 359 
Q 2356 128 2106 18 
Q 1856 -91 1522 -91 
Q 969 -91 644 203 
Q 319 497 319 997 
Q 319 1513 691 1797 
Q 1063 2081 1741 2081 
L 2547 2081 
L 2547 2309 
Q 2547 2688 2317 2895 
Q 2088 3103 1672 3103 
Q 1328 3103 1125 2947 
Q 922 2791 872 2484 
L 575 2484 
L 575 3156 
Q 875 3284 1158 3348 
Q 1441 3413 1709 3413 
Q 2400 3413 2761 3070 
Q 3122 2728 3122 2075 
z
" id="DejaVuSerif-61" transform="scale(0.015625)"/>
      </defs>
      <use transform="translate(0 0.015625)" xlink:href="#DejaVuSerif-70"/>
      <use transform="translate(64.922031 -15.55625)scale(0.7)" xlink:href="#DejaVuSerif-30"/>
      <use transform="translate(112.053477 0.015625)" xlink:href="#DejaVuSerif-20"/>
      <use transform="translate(143.840586 0.015625)" xlink:href="#DejaVuSerif-5b"/>
      <use transform="translate(182.854258 0.015625)" xlink:href="#DejaVuSerif-6b"/>
      <use transform="translate(243.449961 0.015625)" xlink:href="#DejaVuSerif-50"/>
      <use transform="translate(310.735117 0.015625)" xlink:href="#DejaVuSerif-61"/>
      <use transform="translate(370.354258 0.015625)" xlink:href="#DejaVuSerif-5d"/>
     </g>
    </g>
   </g>
   <g id="PathCollection_4">
    <path clip-path="url(#pf74b96ba52)" d="M 116.980596 230.946199 
L 119.719209 225.468973 
L 114.241983 225.468973 
z
" style="fill:none;stroke:#b24200;"/>
    <path clip-path="url(#pf74b96ba52)" d="M 94.182288 77.729757 
L 96.9209 72.252531 
L 91.443675 72.252531 
z
" style="fill:none;stroke:#b24200;"/>
    <path clip-path="url(#pf74b96ba52)" d="M 111.321791 79.905688 
L 114.060404 74.428462 
L 108.583178 74.428462 
z
" style="fill:none;stroke:#b24200;"/>
    <path clip-path="url(#pf74b96ba52)" d="M 131.518521 177.915053 
L 134.257133 172.437827 
L 128.779908 172.437827 
z
" style="fill:none;stroke:#b24200;"/>
    <path clip-path="url(#pf74b96ba52)" d="M 173.525198 239.882241 
L 176.263811 234.405015 
L 170.786585 234.405015 
z
" style="fill:none;stroke:#b24200;"/>
    <path clip-path="url(#pf74b96ba52)" d="M 348.491454 281.086589 
L 351.230067 275.609364 
L 345.752841 275.609364 
z
" style="fill:none;stroke:#b24200;"/>
    <path clip-path="url(#pf74b96ba52)" d="M 521.417712 288.075549 
L 524.156325 282.598323 
L 518.6791 282.598323 
z
" style="fill:none;stroke:#b24200;"/>
   </g>
   <g id="PathCollection_5">
    <defs>
     <path id="mb16a05c547" style="stroke:#b24200;stroke-width:1.5;"/>
    </defs>
    <g clip-path="url(#pf74b96ba52)">
     <use style="fill:#b24200;stroke:#b24200;stroke-width:1.5;" x="277.390922" xlink:href="#mb16a05c547" y="285.885318"/>
     <use style="fill:#b24200;stroke:#b24200;stroke-width:1.5;" x="116.980596" xlink:href="#mb16a05c547" y="228.207586"/>
    </g>
   </g>
   <g id="patch_3">
    <path d="M 64.8 302.173628 
L 64.8 61.426372 
" style="fill:none;stroke:#000000;stroke-linecap:square;stroke-linejoin:miter;stroke-width:0.8;"/>
   </g>
   <g id="patch_4">
    <path d="M 64.8 302.173628 
L 550.8 302.173628 
" style="fill:none;stroke:#000000;stroke-linecap:square;stroke-linejoin:miter;stroke-width:0.8;"/>
   </g>
  </g>
  <g id="legend_1">
   <g id="patch_5">
    <path d="M 563.12 207 
L 629.450469 207 
Q 632.050469 207 632.050469 204.4 
L 632.050469 148.455312 
Q 632.050469 145.855312 629.450469 145.855312 
L 563.12 145.855312 
Q 560.52 145.855312 560.52 148.455312 
L 560.52 204.4 
Q 560.52 207 563.12 207 
z
" style="fill:#ffffff;opacity:0.8;stroke:#cccccc;stroke-linejoin:miter;"/>
   </g>
   <g id="PathCollection_6">
    <path d="M 578.72 160.259394 
C 579.446289 160.259394 580.142928 159.970837 580.656492 159.457273 
C 581.170055 158.943709 581.458613 158.24707 581.458613 157.520781 
C 581.458613 156.794493 581.170055 156.097853 580.656492 155.58429 
C 580.142928 155.070726 579.446289 154.782168 578.72 154.782168 
C 577.993711 154.782168 577.297072 155.070726 576.783508 155.58429 
C 576.269945 156.097853 575.981387 156.794493 575.981387 157.520781 
C 575.981387 158.24707 576.269945 158.943709 576.783508 159.457273 
C 577.297072 159.970837 577.993711 160.259394 578.72 160.259394 
z
" style="fill:none;stroke:#3e0000;"/>
   </g>
   <g id="text_23">
    <!-- 0 -->
    <g transform="translate(602.12 160.933281)scale(0.13 -0.13)">
     <use xlink:href="#DejaVuSerif-30"/>
    </g>
   </g>
   <g id="PathCollection_7">
    <path d="M 578.72 180.475327 
L 581.04379 176.602344 
L 578.72 172.72936 
L 576.39621 176.602344 
z
" style="fill:none;stroke:#0042b2;"/>
   </g>
   <g id="text_24">
    <!-- 1.m -->
    <g transform="translate(602.12 180.014844)scale(0.13 -0.13)">
     <use xlink:href="#DejaVuSerif-31"/>
     <use x="63.623047" xlink:href="#DejaVuSerif-2e"/>
     <use x="95.410156" xlink:href="#DejaVuSerif-6d"/>
    </g>
   </g>
   <g id="PathCollection_8">
    <path d="M 578.72 198.422519 
L 581.458613 192.945293 
L 575.981387 192.945293 
z
" style="fill:none;stroke:#b24200;"/>
   </g>
   <g id="text_25">
    <!-- 1.s -->
    <g transform="translate(602.12 199.096406)scale(0.13 -0.13)">
     <defs>
      <path d="M 359 184 
L 359 959 
L 691 959 
Q 703 588 923 403 
Q 1144 219 1575 219 
Q 1963 219 2166 364 
Q 2369 509 2369 788 
Q 2369 1006 2220 1140 
Q 2072 1275 1594 1428 
L 1178 1569 
Q 750 1706 558 1912 
Q 366 2119 366 2438 
Q 366 2894 700 3153 
Q 1034 3413 1625 3413 
Q 1888 3413 2178 3344 
Q 2469 3275 2778 3144 
L 2778 2419 
L 2447 2419 
Q 2434 2741 2221 2922 
Q 2009 3103 1644 3103 
Q 1281 3103 1095 2975 
Q 909 2847 909 2591 
Q 909 2381 1050 2254 
Q 1191 2128 1613 1997 
L 2069 1856 
Q 2541 1709 2748 1489 
Q 2956 1269 2956 922 
Q 2956 450 2595 179 
Q 2234 -91 1600 -91 
Q 1278 -91 972 -22 
Q 666 47 359 184 
z
" id="DejaVuSerif-73" transform="scale(0.015625)"/>
     </defs>
     <use xlink:href="#DejaVuSerif-31"/>
     <use x="63.623047" xlink:href="#DejaVuSerif-2e"/>
     <use x="95.410156" xlink:href="#DejaVuSerif-73"/>
    </g>
   </g>
  </g>
 </g>
 <defs>
  <clipPath id="pf74b96ba52">
   <rect height="240.747257" width="486" x="64.8" y="61.426372"/>
  </clipPath>
 </defs>
</svg>
