<?xml version="1.0" encoding="utf-8" standalone="no"?>
<!DOCTYPE svg PUBLIC "-//W3C//DTD SVG 1.1//EN"
  "http://www.w3.org/Graphics/SVG/1.1/DTD/svg11.dtd">
<svg height="359.28pt" version="1.1" viewBox="0 0 647.28 359.28" width="647.28pt" xmlns="http://www.w3.org/2000/svg" xmlns:xlink="http://www.w3.org/1999/xlink">
 <metadata>
  <rdf:RDF xmlns:cc="http://creativecommons.org/ns#" xmlns:dc="http://purl.org/dc/elements/1.1/" xmlns:rdf="http://www.w3.org/1999/02/22-rdf-syntax-ns#">
   <cc:Work>
    <dc:type rdf:resource="http://purl.org/dc/dcmitype/StillImage"/>
    <dc:date>2021-10-17T16:20:46.676070</dc:date>
    <dc:format>image/svg+xml</dc:format>
    <dc:creator>
     <cc:Agent>
      <dc:title>Matplotlib v3.4.3, https://matplotlib.org/</dc:title>
     </cc:Agent>
    </dc:creator>
   </cc:Work>
  </rdf:RDF>
 </metadata>
 <defs>
  <style type="text/css">*{stroke-linecap:butt;stroke-linejoin:round;}</style>
 </defs>
 <g id="figure_1">
  <g id="patch_1">
   <path d="M 0 359.28 
L 647.28 359.28 
L 647.28 0 
L 0 0 
z
" style="fill:#ffffff;"/>
  </g>
  <g id="axes_1">
   <g id="patch_2">
    <path d="M 69.46582 308.709503 
L 636.492 308.709503 
L 636.492 25.196413 
L 69.46582 25.196413 
z
" style="fill:#ffffff;"/>
   </g>
   <g id="line2d_1">
    <path clip-path="url(#pe2a917fd75)" d="M 102.832903 295.822545 
L 102.832903 295.822545 
L 610.718083 183.593413 
L 588.467875 38.083372 
L 119.450498 165.684823 
L 95.239738 188.991576 
" style="fill:none;stroke:#ffa500;stroke-linecap:square;stroke-opacity:0.65;"/>
   </g>
   <g id="matplotlib.axis_1">
    <g id="xtick_1">
     <g id="line2d_2">
      <path clip-path="url(#pe2a917fd75)" d="M 610.718083 308.709503 
L 610.718083 25.196413 
" style="fill:none;stroke:#d3d3d3;stroke-dasharray:5.12,1.28,0.8,1.28;stroke-dashoffset:0;stroke-width:0.8;"/>
     </g>
     <g id="line2d_3">
      <defs>
       <path d="M 0 0 
L 0 -3.5 
" id="m13cdb4cb14" style="stroke:#000000;stroke-width:0.8;"/>
      </defs>
      <g>
       <use style="stroke:#000000;stroke-width:0.8;" x="610.718083" xlink:href="#m13cdb4cb14" y="308.709503"/>
      </g>
     </g>
     <g id="text_1">
      <!-- 1382.22 -->
      <g transform="translate(590.04152 321.307941)scale(0.1 -0.1)">
       <defs>
        <path d="M 909 0 
L 909 331 
L 1722 331 
L 1722 4213 
L 781 3603 
L 781 4013 
L 1919 4750 
L 2350 4750 
L 2350 331 
L 3163 331 
L 3163 0 
L 909 0 
z
" id="DejaVuSerif-31" transform="scale(0.015625)"/>
        <path d="M 622 4469 
Q 988 4606 1323 4678 
Q 1659 4750 1953 4750 
Q 2638 4750 3022 4454 
Q 3406 4159 3406 3634 
Q 3406 3213 3140 2930 
Q 2875 2647 2388 2547 
Q 2963 2466 3280 2130 
Q 3597 1794 3597 1259 
Q 3597 606 3158 257 
Q 2719 -91 1894 -91 
Q 1528 -91 1179 -12 
Q 831 66 488 225 
L 488 1131 
L 838 1131 
Q 869 681 1141 450 
Q 1413 219 1906 219 
Q 2384 219 2661 495 
Q 2938 772 2938 1253 
Q 2938 1803 2653 2086 
Q 2369 2369 1819 2369 
L 1522 2369 
L 1522 2688 
L 1678 2688 
Q 2225 2688 2498 2914 
Q 2772 3141 2772 3597 
Q 2772 4006 2547 4223 
Q 2322 4441 1900 4441 
Q 1478 4441 1245 4241 
Q 1013 4041 972 3647 
L 622 3647 
L 622 4469 
z
" id="DejaVuSerif-33" transform="scale(0.015625)"/>
        <path d="M 2981 1275 
Q 2981 1775 2732 2051 
Q 2484 2328 2034 2328 
Q 1584 2328 1336 2051 
Q 1088 1775 1088 1275 
Q 1088 772 1336 495 
Q 1584 219 2034 219 
Q 2484 219 2732 495 
Q 2981 772 2981 1275 
z
M 2853 3541 
Q 2853 3966 2637 4203 
Q 2422 4441 2034 4441 
Q 1650 4441 1433 4203 
Q 1216 3966 1216 3541 
Q 1216 3113 1433 2875 
Q 1650 2638 2034 2638 
Q 2422 2638 2637 2875 
Q 2853 3113 2853 3541 
z
M 2516 2484 
Q 3047 2413 3344 2092 
Q 3641 1772 3641 1275 
Q 3641 619 3225 264 
Q 2809 -91 2034 -91 
Q 1263 -91 845 264 
Q 428 619 428 1275 
Q 428 1772 725 2092 
Q 1022 2413 1556 2484 
Q 1084 2569 832 2842 
Q 581 3116 581 3541 
Q 581 4103 968 4426 
Q 1356 4750 2034 4750 
Q 2713 4750 3100 4426 
Q 3488 4103 3488 3541 
Q 3488 3116 3236 2842 
Q 2984 2569 2516 2484 
z
" id="DejaVuSerif-38" transform="scale(0.015625)"/>
        <path d="M 819 3553 
L 469 3553 
L 469 4384 
Q 803 4563 1142 4656 
Q 1481 4750 1806 4750 
Q 2534 4750 2956 4397 
Q 3378 4044 3378 3438 
Q 3378 2753 2422 1800 
Q 2347 1728 2309 1691 
L 1131 513 
L 3078 513 
L 3078 1088 
L 3444 1088 
L 3444 0 
L 434 0 
L 434 341 
L 1850 1753 
Q 2319 2222 2519 2614 
Q 2719 3006 2719 3438 
Q 2719 3909 2473 4175 
Q 2228 4441 1797 4441 
Q 1350 4441 1106 4219 
Q 863 3997 819 3553 
z
" id="DejaVuSerif-32" transform="scale(0.015625)"/>
        <path d="M 603 325 
Q 603 500 722 622 
Q 841 744 1019 744 
Q 1191 744 1312 622 
Q 1434 500 1434 325 
Q 1434 153 1312 31 
Q 1191 -91 1019 -91 
Q 841 -91 722 29 
Q 603 150 603 325 
z
" id="DejaVuSerif-2e" transform="scale(0.015625)"/>
       </defs>
       <use xlink:href="#DejaVuSerif-31"/>
       <use x="63.623047" xlink:href="#DejaVuSerif-33"/>
       <use x="127.246094" xlink:href="#DejaVuSerif-38"/>
       <use x="190.869141" xlink:href="#DejaVuSerif-32"/>
       <use x="254.492188" xlink:href="#DejaVuSerif-2e"/>
       <use x="286.279297" xlink:href="#DejaVuSerif-32"/>
       <use x="349.902344" xlink:href="#DejaVuSerif-32"/>
      </g>
     </g>
    </g>
    <g id="xtick_2">
     <g id="line2d_4">
      <path clip-path="url(#pe2a917fd75)" d="M 553.442711 308.709503 
L 553.442711 25.196413 
" style="fill:none;stroke:#d3d3d3;stroke-dasharray:5.12,1.28,0.8,1.28;stroke-dashoffset:0;stroke-width:0.8;"/>
     </g>
     <g id="line2d_5">
      <g>
       <use style="stroke:#000000;stroke-width:0.8;" x="553.442711" xlink:href="#m13cdb4cb14" y="308.709503"/>
      </g>
     </g>
     <g id="text_2">
      <!-- 1239.90 -->
      <g transform="translate(532.766149 321.307941)scale(0.1 -0.1)">
       <defs>
        <path d="M 2994 2091 
Q 2784 1856 2512 1740 
Q 2241 1625 1900 1625 
Q 1206 1625 804 2044 
Q 403 2463 403 3188 
Q 403 3897 839 4323 
Q 1275 4750 2003 4750 
Q 2794 4750 3217 4161 
Q 3641 3572 3641 2478 
Q 3641 1253 3137 581 
Q 2634 -91 1722 -91 
Q 1475 -91 1203 -44 
Q 931 3 647 97 
L 647 872 
L 997 872 
Q 1038 556 1241 387 
Q 1444 219 1784 219 
Q 2391 219 2687 676 
Q 2984 1134 2994 2091 
z
M 1978 4441 
Q 1534 4441 1298 4117 
Q 1063 3794 1063 3188 
Q 1063 2581 1298 2256 
Q 1534 1931 1978 1931 
Q 2422 1931 2658 2245 
Q 2894 2559 2894 3150 
Q 2894 3772 2656 4106 
Q 2419 4441 1978 4441 
z
" id="DejaVuSerif-39" transform="scale(0.015625)"/>
        <path d="M 2034 219 
Q 2513 219 2750 744 
Q 2988 1269 2988 2328 
Q 2988 3391 2750 3916 
Q 2513 4441 2034 4441 
Q 1556 4441 1318 3916 
Q 1081 3391 1081 2328 
Q 1081 1269 1318 744 
Q 1556 219 2034 219 
z
M 2034 -91 
Q 1275 -91 848 546 
Q 422 1184 422 2328 
Q 422 3475 848 4112 
Q 1275 4750 2034 4750 
Q 2797 4750 3222 4112 
Q 3647 3475 3647 2328 
Q 3647 1184 3222 546 
Q 2797 -91 2034 -91 
z
" id="DejaVuSerif-30" transform="scale(0.015625)"/>
       </defs>
       <use xlink:href="#DejaVuSerif-31"/>
       <use x="63.623047" xlink:href="#DejaVuSerif-32"/>
       <use x="127.246094" xlink:href="#DejaVuSerif-33"/>
       <use x="190.869141" xlink:href="#DejaVuSerif-39"/>
       <use x="254.492188" xlink:href="#DejaVuSerif-2e"/>
       <use x="286.279297" xlink:href="#DejaVuSerif-39"/>
       <use x="349.902344" xlink:href="#DejaVuSerif-30"/>
      </g>
     </g>
    </g>
    <g id="xtick_3">
     <g id="line2d_6">
      <path clip-path="url(#pe2a917fd75)" d="M 496.167339 308.709503 
L 496.167339 25.196413 
" style="fill:none;stroke:#d3d3d3;stroke-dasharray:5.12,1.28,0.8,1.28;stroke-dashoffset:0;stroke-width:0.8;"/>
     </g>
     <g id="line2d_7">
      <g>
       <use style="stroke:#000000;stroke-width:0.8;" x="496.167339" xlink:href="#m13cdb4cb14" y="308.709503"/>
      </g>
     </g>
     <g id="text_3">
      <!-- 1097.58 -->
      <g transform="translate(475.490777 321.307941)scale(0.1 -0.1)">
       <defs>
        <path d="M 3609 4347 
L 1784 0 
L 1319 0 
L 3059 4153 
L 903 4153 
L 903 3578 
L 538 3578 
L 538 4666 
L 3609 4666 
L 3609 4347 
z
" id="DejaVuSerif-37" transform="scale(0.015625)"/>
        <path d="M 3219 4666 
L 3219 4153 
L 1081 4153 
L 1081 2816 
Q 1244 2928 1461 2984 
Q 1678 3041 1947 3041 
Q 2703 3041 3140 2622 
Q 3578 2203 3578 1478 
Q 3578 738 3136 323 
Q 2694 -91 1894 -91 
Q 1572 -91 1234 -12 
Q 897 66 544 225 
L 544 1131 
L 897 1131 
Q 925 688 1179 453 
Q 1434 219 1894 219 
Q 2388 219 2653 544 
Q 2919 869 2919 1478 
Q 2919 2084 2655 2407 
Q 2391 2731 1894 2731 
Q 1613 2731 1398 2631 
Q 1184 2531 1019 2322 
L 750 2322 
L 750 4666 
L 3219 4666 
z
" id="DejaVuSerif-35" transform="scale(0.015625)"/>
       </defs>
       <use xlink:href="#DejaVuSerif-31"/>
       <use x="63.623047" xlink:href="#DejaVuSerif-30"/>
       <use x="127.246094" xlink:href="#DejaVuSerif-39"/>
       <use x="190.869141" xlink:href="#DejaVuSerif-37"/>
       <use x="254.492188" xlink:href="#DejaVuSerif-2e"/>
       <use x="286.279297" xlink:href="#DejaVuSerif-35"/>
       <use x="349.902344" xlink:href="#DejaVuSerif-38"/>
      </g>
     </g>
    </g>
    <g id="xtick_4">
     <g id="line2d_8">
      <path clip-path="url(#pe2a917fd75)" d="M 438.891968 308.709503 
L 438.891968 25.196413 
" style="fill:none;stroke:#d3d3d3;stroke-dasharray:5.12,1.28,0.8,1.28;stroke-dashoffset:0;stroke-width:0.8;"/>
     </g>
     <g id="line2d_9">
      <g>
       <use style="stroke:#000000;stroke-width:0.8;" x="438.891968" xlink:href="#m13cdb4cb14" y="308.709503"/>
      </g>
     </g>
     <g id="text_4">
      <!-- 955.25 -->
      <g transform="translate(421.396655 321.307941)scale(0.1 -0.1)">
       <use xlink:href="#DejaVuSerif-39"/>
       <use x="63.623047" xlink:href="#DejaVuSerif-35"/>
       <use x="127.246094" xlink:href="#DejaVuSerif-35"/>
       <use x="190.869141" xlink:href="#DejaVuSerif-2e"/>
       <use x="222.65625" xlink:href="#DejaVuSerif-32"/>
       <use x="286.279297" xlink:href="#DejaVuSerif-35"/>
      </g>
     </g>
    </g>
    <g id="xtick_5">
     <g id="line2d_10">
      <path clip-path="url(#pe2a917fd75)" d="M 381.616596 308.709503 
L 381.616596 25.196413 
" style="fill:none;stroke:#d3d3d3;stroke-dasharray:5.12,1.28,0.8,1.28;stroke-dashoffset:0;stroke-width:0.8;"/>
     </g>
     <g id="line2d_11">
      <g>
       <use style="stroke:#000000;stroke-width:0.8;" x="381.616596" xlink:href="#m13cdb4cb14" y="308.709503"/>
      </g>
     </g>
     <g id="text_5">
      <!-- 812.93 -->
      <g transform="translate(364.121284 321.307941)scale(0.1 -0.1)">
       <use xlink:href="#DejaVuSerif-38"/>
       <use x="63.623047" xlink:href="#DejaVuSerif-31"/>
       <use x="127.246094" xlink:href="#DejaVuSerif-32"/>
       <use x="190.869141" xlink:href="#DejaVuSerif-2e"/>
       <use x="222.65625" xlink:href="#DejaVuSerif-39"/>
       <use x="286.279297" xlink:href="#DejaVuSerif-33"/>
      </g>
     </g>
    </g>
    <g id="xtick_6">
     <g id="line2d_12">
      <path clip-path="url(#pe2a917fd75)" d="M 324.341224 308.709503 
L 324.341224 25.196413 
" style="fill:none;stroke:#d3d3d3;stroke-dasharray:5.12,1.28,0.8,1.28;stroke-dashoffset:0;stroke-width:0.8;"/>
     </g>
     <g id="line2d_13">
      <g>
       <use style="stroke:#000000;stroke-width:0.8;" x="324.341224" xlink:href="#m13cdb4cb14" y="308.709503"/>
      </g>
     </g>
     <g id="text_6">
      <!-- 670.61 -->
      <g transform="translate(306.845912 321.307941)scale(0.1 -0.1)">
       <defs>
        <path d="M 2094 219 
Q 2534 219 2771 542 
Q 3009 866 3009 1472 
Q 3009 2078 2771 2401 
Q 2534 2725 2094 2725 
Q 1647 2725 1412 2412 
Q 1178 2100 1178 1509 
Q 1178 888 1415 553 
Q 1653 219 2094 219 
z
M 1075 2569 
Q 1288 2803 1556 2918 
Q 1825 3034 2163 3034 
Q 2859 3034 3264 2615 
Q 3669 2197 3669 1472 
Q 3669 763 3233 336 
Q 2797 -91 2069 -91 
Q 1278 -91 853 498 
Q 428 1088 428 2181 
Q 428 3406 931 4078 
Q 1434 4750 2350 4750 
Q 2597 4750 2869 4703 
Q 3141 4656 3425 4563 
L 3425 3794 
L 3072 3794 
Q 3034 4109 2831 4275 
Q 2628 4441 2284 4441 
Q 1678 4441 1381 3981 
Q 1084 3522 1075 2569 
z
" id="DejaVuSerif-36" transform="scale(0.015625)"/>
       </defs>
       <use xlink:href="#DejaVuSerif-36"/>
       <use x="63.623047" xlink:href="#DejaVuSerif-37"/>
       <use x="127.246094" xlink:href="#DejaVuSerif-30"/>
       <use x="190.869141" xlink:href="#DejaVuSerif-2e"/>
       <use x="222.65625" xlink:href="#DejaVuSerif-36"/>
       <use x="286.279297" xlink:href="#DejaVuSerif-31"/>
      </g>
     </g>
    </g>
    <g id="xtick_7">
     <g id="line2d_14">
      <path clip-path="url(#pe2a917fd75)" d="M 267.065853 308.709503 
L 267.065853 25.196413 
" style="fill:none;stroke:#d3d3d3;stroke-dasharray:5.12,1.28,0.8,1.28;stroke-dashoffset:0;stroke-width:0.8;"/>
     </g>
     <g id="line2d_15">
      <g>
       <use style="stroke:#000000;stroke-width:0.8;" x="267.065853" xlink:href="#m13cdb4cb14" y="308.709503"/>
      </g>
     </g>
     <g id="text_7">
      <!-- 528.29 -->
      <g transform="translate(249.57054 321.307941)scale(0.1 -0.1)">
       <use xlink:href="#DejaVuSerif-35"/>
       <use x="63.623047" xlink:href="#DejaVuSerif-32"/>
       <use x="127.246094" xlink:href="#DejaVuSerif-38"/>
       <use x="190.869141" xlink:href="#DejaVuSerif-2e"/>
       <use x="222.65625" xlink:href="#DejaVuSerif-32"/>
       <use x="286.279297" xlink:href="#DejaVuSerif-39"/>
      </g>
     </g>
    </g>
    <g id="xtick_8">
     <g id="line2d_16">
      <path clip-path="url(#pe2a917fd75)" d="M 209.790481 308.709503 
L 209.790481 25.196413 
" style="fill:none;stroke:#d3d3d3;stroke-dasharray:5.12,1.28,0.8,1.28;stroke-dashoffset:0;stroke-width:0.8;"/>
     </g>
     <g id="line2d_17">
      <g>
       <use style="stroke:#000000;stroke-width:0.8;" x="209.790481" xlink:href="#m13cdb4cb14" y="308.709503"/>
      </g>
     </g>
     <g id="text_8">
      <!-- 385.97 -->
      <g transform="translate(192.295169 321.307941)scale(0.1 -0.1)">
       <use xlink:href="#DejaVuSerif-33"/>
       <use x="63.623047" xlink:href="#DejaVuSerif-38"/>
       <use x="127.246094" xlink:href="#DejaVuSerif-35"/>
       <use x="190.869141" xlink:href="#DejaVuSerif-2e"/>
       <use x="222.65625" xlink:href="#DejaVuSerif-39"/>
       <use x="286.279297" xlink:href="#DejaVuSerif-37"/>
      </g>
     </g>
    </g>
    <g id="xtick_9">
     <g id="line2d_18">
      <path clip-path="url(#pe2a917fd75)" d="M 152.515109 308.709503 
L 152.515109 25.196413 
" style="fill:none;stroke:#d3d3d3;stroke-dasharray:5.12,1.28,0.8,1.28;stroke-dashoffset:0;stroke-width:0.8;"/>
     </g>
     <g id="line2d_19">
      <g>
       <use style="stroke:#000000;stroke-width:0.8;" x="152.515109" xlink:href="#m13cdb4cb14" y="308.709503"/>
      </g>
     </g>
     <g id="text_9">
      <!-- 243.65 -->
      <g transform="translate(135.019797 321.307941)scale(0.1 -0.1)">
       <defs>
        <path d="M 2234 1581 
L 2234 4063 
L 641 1581 
L 2234 1581 
z
M 3609 0 
L 1484 0 
L 1484 331 
L 2234 331 
L 2234 1247 
L 197 1247 
L 197 1588 
L 2241 4750 
L 2859 4750 
L 2859 1581 
L 3750 1581 
L 3750 1247 
L 2859 1247 
L 2859 331 
L 3609 331 
L 3609 0 
z
" id="DejaVuSerif-34" transform="scale(0.015625)"/>
       </defs>
       <use xlink:href="#DejaVuSerif-32"/>
       <use x="63.623047" xlink:href="#DejaVuSerif-34"/>
       <use x="127.246094" xlink:href="#DejaVuSerif-33"/>
       <use x="190.869141" xlink:href="#DejaVuSerif-2e"/>
       <use x="222.65625" xlink:href="#DejaVuSerif-36"/>
       <use x="286.279297" xlink:href="#DejaVuSerif-35"/>
      </g>
     </g>
    </g>
    <g id="xtick_10">
     <g id="line2d_20">
      <path clip-path="url(#pe2a917fd75)" d="M 95.239738 308.709503 
L 95.239738 25.196413 
" style="fill:none;stroke:#d3d3d3;stroke-dasharray:5.12,1.28,0.8,1.28;stroke-dashoffset:0;stroke-width:0.8;"/>
     </g>
     <g id="line2d_21">
      <g>
       <use style="stroke:#000000;stroke-width:0.8;" x="95.239738" xlink:href="#m13cdb4cb14" y="308.709503"/>
      </g>
     </g>
     <g id="text_10">
      <!-- 101.33 -->
      <g transform="translate(77.744425 321.307941)scale(0.1 -0.1)">
       <use xlink:href="#DejaVuSerif-31"/>
       <use x="63.623047" xlink:href="#DejaVuSerif-30"/>
       <use x="127.246094" xlink:href="#DejaVuSerif-31"/>
       <use x="190.869141" xlink:href="#DejaVuSerif-2e"/>
       <use x="222.65625" xlink:href="#DejaVuSerif-33"/>
       <use x="286.279297" xlink:href="#DejaVuSerif-33"/>
      </g>
     </g>
    </g>
    <g id="text_11">
     <!-- p$_0$ [kPa] -->
     <g transform="translate(328.37891 342.507628)scale(0.12 -0.12)">
      <defs>
       <path d="M 1313 1825 
L 1313 1497 
Q 1313 897 1542 583 
Q 1772 269 2209 269 
Q 2650 269 2876 622 
Q 3103 975 3103 1663 
Q 3103 2353 2876 2703 
Q 2650 3053 2209 3053 
Q 1772 3053 1542 2737 
Q 1313 2422 1313 1825 
z
M 738 2988 
L 184 2988 
L 184 3322 
L 1313 3322 
L 1313 2803 
Q 1481 3116 1742 3264 
Q 2003 3413 2388 3413 
Q 3000 3413 3387 2928 
Q 3775 2444 3775 1663 
Q 3775 881 3387 395 
Q 3000 -91 2388 -91 
Q 2003 -91 1742 57 
Q 1481 206 1313 519 
L 1313 -997 
L 1856 -997 
L 1856 -1331 
L 184 -1331 
L 184 -997 
L 738 -997 
L 738 2988 
z
" id="DejaVuSerif-70" transform="scale(0.015625)"/>
       <path id="DejaVuSerif-20" transform="scale(0.015625)"/>
       <path d="M 550 4863 
L 2003 4863 
L 2003 4531 
L 1147 4531 
L 1147 -513 
L 2003 -513 
L 2003 -844 
L 550 -844 
L 550 4863 
z
" id="DejaVuSerif-5b" transform="scale(0.015625)"/>
       <path d="M 1831 0 
L 219 0 
L 219 331 
L 738 331 
L 738 4531 
L 184 4531 
L 184 4863 
L 1313 4863 
L 1313 1697 
L 2713 2988 
L 2234 2988 
L 2234 3322 
L 3738 3322 
L 3738 2988 
L 3169 2988 
L 2181 2075 
L 3444 331 
L 3922 331 
L 3922 0 
L 2284 0 
L 2284 331 
L 2759 331 
L 1766 1697 
L 1313 1275 
L 1313 331 
L 1831 331 
L 1831 0 
z
" id="DejaVuSerif-6b" transform="scale(0.015625)"/>
       <path d="M 1581 2375 
L 2406 2375 
Q 2872 2375 3115 2626 
Q 3359 2878 3359 3353 
Q 3359 3831 3115 4081 
Q 2872 4331 2406 4331 
L 1581 4331 
L 1581 2375 
z
M 353 0 
L 353 331 
L 947 331 
L 947 4331 
L 353 4331 
L 353 4666 
L 2559 4666 
Q 3259 4666 3668 4311 
Q 4078 3956 4078 3353 
Q 4078 2753 3668 2397 
Q 3259 2041 2559 2041 
L 1581 2041 
L 1581 331 
L 2303 331 
L 2303 0 
L 353 0 
z
" id="DejaVuSerif-50" transform="scale(0.015625)"/>
       <path d="M 2547 1044 
L 2547 1747 
L 1806 1747 
Q 1378 1747 1168 1562 
Q 959 1378 959 997 
Q 959 650 1171 447 
Q 1384 244 1747 244 
Q 2106 244 2326 466 
Q 2547 688 2547 1044 
z
M 3122 2075 
L 3122 331 
L 3634 331 
L 3634 0 
L 2547 0 
L 2547 359 
Q 2356 128 2106 18 
Q 1856 -91 1522 -91 
Q 969 -91 644 203 
Q 319 497 319 997 
Q 319 1513 691 1797 
Q 1063 2081 1741 2081 
L 2547 2081 
L 2547 2309 
Q 2547 2688 2317 2895 
Q 2088 3103 1672 3103 
Q 1328 3103 1125 2947 
Q 922 2791 872 2484 
L 575 2484 
L 575 3156 
Q 875 3284 1158 3348 
Q 1441 3413 1709 3413 
Q 2400 3413 2761 3070 
Q 3122 2728 3122 2075 
z
" id="DejaVuSerif-61" transform="scale(0.015625)"/>
       <path d="M 1947 4863 
L 1947 -844 
L 494 -844 
L 494 -513 
L 1350 -513 
L 1350 4531 
L 494 4531 
L 494 4863 
L 1947 4863 
z
" id="DejaVuSerif-5d" transform="scale(0.015625)"/>
      </defs>
      <use transform="translate(0 0.015625)" xlink:href="#DejaVuSerif-70"/>
      <use transform="translate(64.922031 -15.55625)scale(0.7)" xlink:href="#DejaVuSerif-30"/>
      <use transform="translate(112.053477 0.015625)" xlink:href="#DejaVuSerif-20"/>
      <use transform="translate(143.840586 0.015625)" xlink:href="#DejaVuSerif-5b"/>
      <use transform="translate(182.854258 0.015625)" xlink:href="#DejaVuSerif-6b"/>
      <use transform="translate(243.449961 0.015625)" xlink:href="#DejaVuSerif-50"/>
      <use transform="translate(310.735117 0.015625)" xlink:href="#DejaVuSerif-61"/>
      <use transform="translate(370.354258 0.015625)" xlink:href="#DejaVuSerif-5d"/>
     </g>
    </g>
   </g>
   <g id="matplotlib.axis_2">
    <g id="ytick_1">
     <g id="line2d_22">
      <path clip-path="url(#pe2a917fd75)" d="M 69.46582 38.083372 
L 636.492 38.083372 
" style="fill:none;stroke:#d3d3d3;stroke-dasharray:5.12,1.28,0.8,1.28;stroke-dashoffset:0;stroke-width:0.8;"/>
     </g>
     <g id="line2d_23">
      <defs>
       <path d="M 0 0 
L 3.5 0 
" id="maeeaa5b79e" style="stroke:#000000;stroke-width:0.8;"/>
      </defs>
      <g>
       <use style="stroke:#000000;stroke-width:0.8;" x="69.46582" xlink:href="#maeeaa5b79e" y="38.083372"/>
      </g>
     </g>
     <g id="text_12">
      <!-- 1127.7 -->
      <g transform="translate(29.475195 41.882591)scale(0.1 -0.1)">
       <use xlink:href="#DejaVuSerif-31"/>
       <use x="63.623047" xlink:href="#DejaVuSerif-31"/>
       <use x="127.246094" xlink:href="#DejaVuSerif-32"/>
       <use x="190.869141" xlink:href="#DejaVuSerif-37"/>
       <use x="254.492188" xlink:href="#DejaVuSerif-2e"/>
       <use x="286.279297" xlink:href="#DejaVuSerif-37"/>
      </g>
     </g>
    </g>
    <g id="ytick_2">
     <g id="line2d_24">
      <path clip-path="url(#pe2a917fd75)" d="M 69.46582 66.721058 
L 636.492 66.721058 
" style="fill:none;stroke:#d3d3d3;stroke-dasharray:5.12,1.28,0.8,1.28;stroke-dashoffset:0;stroke-width:0.8;"/>
     </g>
     <g id="line2d_25">
      <g>
       <use style="stroke:#000000;stroke-width:0.8;" x="69.46582" xlink:href="#maeeaa5b79e" y="66.721058"/>
      </g>
     </g>
     <g id="text_13">
      <!-- 1036.0 -->
      <g transform="translate(29.475195 70.520277)scale(0.1 -0.1)">
       <use xlink:href="#DejaVuSerif-31"/>
       <use x="63.623047" xlink:href="#DejaVuSerif-30"/>
       <use x="127.246094" xlink:href="#DejaVuSerif-33"/>
       <use x="190.869141" xlink:href="#DejaVuSerif-36"/>
       <use x="254.492188" xlink:href="#DejaVuSerif-2e"/>
       <use x="286.279297" xlink:href="#DejaVuSerif-30"/>
      </g>
     </g>
    </g>
    <g id="ytick_3">
     <g id="line2d_26">
      <path clip-path="url(#pe2a917fd75)" d="M 69.46582 95.358744 
L 636.492 95.358744 
" style="fill:none;stroke:#d3d3d3;stroke-dasharray:5.12,1.28,0.8,1.28;stroke-dashoffset:0;stroke-width:0.8;"/>
     </g>
     <g id="line2d_27">
      <g>
       <use style="stroke:#000000;stroke-width:0.8;" x="69.46582" xlink:href="#maeeaa5b79e" y="95.358744"/>
      </g>
     </g>
     <g id="text_14">
      <!-- 944.3 -->
      <g transform="translate(35.837695 99.157962)scale(0.1 -0.1)">
       <use xlink:href="#DejaVuSerif-39"/>
       <use x="63.623047" xlink:href="#DejaVuSerif-34"/>
       <use x="127.246094" xlink:href="#DejaVuSerif-34"/>
       <use x="190.869141" xlink:href="#DejaVuSerif-2e"/>
       <use x="222.65625" xlink:href="#DejaVuSerif-33"/>
      </g>
     </g>
    </g>
    <g id="ytick_4">
     <g id="line2d_28">
      <path clip-path="url(#pe2a917fd75)" d="M 69.46582 123.99643 
L 636.492 123.99643 
" style="fill:none;stroke:#d3d3d3;stroke-dasharray:5.12,1.28,0.8,1.28;stroke-dashoffset:0;stroke-width:0.8;"/>
     </g>
     <g id="line2d_29">
      <g>
       <use style="stroke:#000000;stroke-width:0.8;" x="69.46582" xlink:href="#maeeaa5b79e" y="123.99643"/>
      </g>
     </g>
     <g id="text_15">
      <!-- 852.6 -->
      <g transform="translate(35.837695 127.795648)scale(0.1 -0.1)">
       <use xlink:href="#DejaVuSerif-38"/>
       <use x="63.623047" xlink:href="#DejaVuSerif-35"/>
       <use x="127.246094" xlink:href="#DejaVuSerif-32"/>
       <use x="190.869141" xlink:href="#DejaVuSerif-2e"/>
       <use x="222.65625" xlink:href="#DejaVuSerif-36"/>
      </g>
     </g>
    </g>
    <g id="ytick_5">
     <g id="line2d_30">
      <path clip-path="url(#pe2a917fd75)" d="M 69.46582 152.634115 
L 636.492 152.634115 
" style="fill:none;stroke:#d3d3d3;stroke-dasharray:5.12,1.28,0.8,1.28;stroke-dashoffset:0;stroke-width:0.8;"/>
     </g>
     <g id="line2d_31">
      <g>
       <use style="stroke:#000000;stroke-width:0.8;" x="69.46582" xlink:href="#maeeaa5b79e" y="152.634115"/>
      </g>
     </g>
     <g id="text_16">
      <!-- 760.9 -->
      <g transform="translate(35.837695 156.433334)scale(0.1 -0.1)">
       <use xlink:href="#DejaVuSerif-37"/>
       <use x="63.623047" xlink:href="#DejaVuSerif-36"/>
       <use x="127.246094" xlink:href="#DejaVuSerif-30"/>
       <use x="190.869141" xlink:href="#DejaVuSerif-2e"/>
       <use x="222.65625" xlink:href="#DejaVuSerif-39"/>
      </g>
     </g>
    </g>
    <g id="ytick_6">
     <g id="line2d_32">
      <path clip-path="url(#pe2a917fd75)" d="M 69.46582 181.271801 
L 636.492 181.271801 
" style="fill:none;stroke:#d3d3d3;stroke-dasharray:5.12,1.28,0.8,1.28;stroke-dashoffset:0;stroke-width:0.8;"/>
     </g>
     <g id="line2d_33">
      <g>
       <use style="stroke:#000000;stroke-width:0.8;" x="69.46582" xlink:href="#maeeaa5b79e" y="181.271801"/>
      </g>
     </g>
     <g id="text_17">
      <!-- 669.3 -->
      <g transform="translate(35.837695 185.07102)scale(0.1 -0.1)">
       <use xlink:href="#DejaVuSerif-36"/>
       <use x="63.623047" xlink:href="#DejaVuSerif-36"/>
       <use x="127.246094" xlink:href="#DejaVuSerif-39"/>
       <use x="190.869141" xlink:href="#DejaVuSerif-2e"/>
       <use x="222.65625" xlink:href="#DejaVuSerif-33"/>
      </g>
     </g>
    </g>
    <g id="ytick_7">
     <g id="line2d_34">
      <path clip-path="url(#pe2a917fd75)" d="M 69.46582 209.909487 
L 636.492 209.909487 
" style="fill:none;stroke:#d3d3d3;stroke-dasharray:5.12,1.28,0.8,1.28;stroke-dashoffset:0;stroke-width:0.8;"/>
     </g>
     <g id="line2d_35">
      <g>
       <use style="stroke:#000000;stroke-width:0.8;" x="69.46582" xlink:href="#maeeaa5b79e" y="209.909487"/>
      </g>
     </g>
     <g id="text_18">
      <!-- 577.6 -->
      <g transform="translate(35.837695 213.708706)scale(0.1 -0.1)">
       <use xlink:href="#DejaVuSerif-35"/>
       <use x="63.623047" xlink:href="#DejaVuSerif-37"/>
       <use x="127.246094" xlink:href="#DejaVuSerif-37"/>
       <use x="190.869141" xlink:href="#DejaVuSerif-2e"/>
       <use x="222.65625" xlink:href="#DejaVuSerif-36"/>
      </g>
     </g>
    </g>
    <g id="ytick_8">
     <g id="line2d_36">
      <path clip-path="url(#pe2a917fd75)" d="M 69.46582 238.547173 
L 636.492 238.547173 
" style="fill:none;stroke:#d3d3d3;stroke-dasharray:5.12,1.28,0.8,1.28;stroke-dashoffset:0;stroke-width:0.8;"/>
     </g>
     <g id="line2d_37">
      <g>
       <use style="stroke:#000000;stroke-width:0.8;" x="69.46582" xlink:href="#maeeaa5b79e" y="238.547173"/>
      </g>
     </g>
     <g id="text_19">
      <!-- 485.9 -->
      <g transform="translate(35.837695 242.346392)scale(0.1 -0.1)">
       <use xlink:href="#DejaVuSerif-34"/>
       <use x="63.623047" xlink:href="#DejaVuSerif-38"/>
       <use x="127.246094" xlink:href="#DejaVuSerif-35"/>
       <use x="190.869141" xlink:href="#DejaVuSerif-2e"/>
       <use x="222.65625" xlink:href="#DejaVuSerif-39"/>
      </g>
     </g>
    </g>
    <g id="ytick_9">
     <g id="line2d_38">
      <path clip-path="url(#pe2a917fd75)" d="M 69.46582 267.184859 
L 636.492 267.184859 
" style="fill:none;stroke:#d3d3d3;stroke-dasharray:5.12,1.28,0.8,1.28;stroke-dashoffset:0;stroke-width:0.8;"/>
     </g>
     <g id="line2d_39">
      <g>
       <use style="stroke:#000000;stroke-width:0.8;" x="69.46582" xlink:href="#maeeaa5b79e" y="267.184859"/>
      </g>
     </g>
     <g id="text_20">
      <!-- 394.2 -->
      <g transform="translate(35.837695 270.984077)scale(0.1 -0.1)">
       <use xlink:href="#DejaVuSerif-33"/>
       <use x="63.623047" xlink:href="#DejaVuSerif-39"/>
       <use x="127.246094" xlink:href="#DejaVuSerif-34"/>
       <use x="190.869141" xlink:href="#DejaVuSerif-2e"/>
       <use x="222.65625" xlink:href="#DejaVuSerif-32"/>
      </g>
     </g>
    </g>
    <g id="ytick_10">
     <g id="line2d_40">
      <path clip-path="url(#pe2a917fd75)" d="M 69.46582 295.822545 
L 636.492 295.822545 
" style="fill:none;stroke:#d3d3d3;stroke-dasharray:5.12,1.28,0.8,1.28;stroke-dashoffset:0;stroke-width:0.8;"/>
     </g>
     <g id="line2d_41">
      <g>
       <use style="stroke:#000000;stroke-width:0.8;" x="69.46582" xlink:href="#maeeaa5b79e" y="295.822545"/>
      </g>
     </g>
     <g id="text_21">
      <!-- 302.6 -->
      <g transform="translate(35.837695 299.621763)scale(0.1 -0.1)">
       <use xlink:href="#DejaVuSerif-33"/>
       <use x="63.623047" xlink:href="#DejaVuSerif-30"/>
       <use x="127.246094" xlink:href="#DejaVuSerif-32"/>
       <use x="190.869141" xlink:href="#DejaVuSerif-2e"/>
       <use x="222.65625" xlink:href="#DejaVuSerif-36"/>
      </g>
     </g>
    </g>
    <g id="text_22">
     <!-- T$_0$ [K] -->
     <g transform="translate(21.97957 184.952958)rotate(-90)scale(0.12 -0.12)">
      <defs>
       <path d="M 1222 0 
L 1222 331 
L 1819 331 
L 1819 4294 
L 447 4294 
L 447 3566 
L 63 3566 
L 63 4666 
L 4206 4666 
L 4206 3566 
L 3822 3566 
L 3822 4294 
L 2450 4294 
L 2450 331 
L 3047 331 
L 3047 0 
L 1222 0 
z
" id="DejaVuSerif-54" transform="scale(0.015625)"/>
       <path d="M 353 0 
L 353 331 
L 947 331 
L 947 4331 
L 353 4331 
L 353 4666 
L 2175 4666 
L 2175 4331 
L 1581 4331 
L 1581 2566 
L 3591 4331 
L 3084 4331 
L 3084 4666 
L 4634 4666 
L 4634 4331 
L 4109 4331 
L 2106 2572 
L 4347 331 
L 4878 331 
L 4878 0 
L 3794 0 
L 1581 2216 
L 1581 331 
L 2175 331 
L 2175 0 
L 353 0 
z
" id="DejaVuSerif-4b" transform="scale(0.015625)"/>
      </defs>
      <use transform="translate(0 0.015625)" xlink:href="#DejaVuSerif-54"/>
      <use transform="translate(67.607578 -15.55625)scale(0.7)" xlink:href="#DejaVuSerif-30"/>
      <use transform="translate(114.739023 0.015625)" xlink:href="#DejaVuSerif-20"/>
      <use transform="translate(146.526133 0.015625)" xlink:href="#DejaVuSerif-5b"/>
      <use transform="translate(185.539805 0.015625)" xlink:href="#DejaVuSerif-4b"/>
      <use transform="translate(260.246836 0.015625)" xlink:href="#DejaVuSerif-5d"/>
     </g>
    </g>
   </g>
   <g id="PathCollection_1">
    <defs>
     <path d="M -2.738613 2.738613 
L 2.738613 -2.738613 
M -2.738613 -2.738613 
L 2.738613 2.738613 
" id="mf76b5d0cde" style="stroke:#b25900;stroke-width:1.5;"/>
    </defs>
    <g clip-path="url(#pe2a917fd75)">
     <use style="fill:#b25900;stroke:#b25900;stroke-width:1.5;" x="102.832903" xlink:href="#mf76b5d0cde" y="295.822545"/>
     <use style="fill:#b25900;stroke:#b25900;stroke-width:1.5;" x="102.832903" xlink:href="#mf76b5d0cde" y="295.822545"/>
     <use style="fill:#b25900;stroke:#b25900;stroke-width:1.5;" x="610.718083" xlink:href="#mf76b5d0cde" y="183.593413"/>
     <use style="fill:#b25900;stroke:#b25900;stroke-width:1.5;" x="588.467875" xlink:href="#mf76b5d0cde" y="38.083372"/>
     <use style="fill:#b25900;stroke:#b25900;stroke-width:1.5;" x="119.450498" xlink:href="#mf76b5d0cde" y="165.684823"/>
     <use style="fill:#b25900;stroke:#b25900;stroke-width:1.5;" x="95.239738" xlink:href="#mf76b5d0cde" y="188.991576"/>
    </g>
   </g>
   <g id="patch_3">
    <path d="M 69.46582 308.709503 
L 69.46582 25.196413 
" style="fill:none;stroke:#000000;stroke-linecap:square;stroke-linejoin:miter;stroke-width:0.8;"/>
   </g>
   <g id="patch_4">
    <path d="M 69.46582 308.709503 
L 636.492 308.709503 
" style="fill:none;stroke:#000000;stroke-linecap:square;stroke-linejoin:miter;stroke-width:0.8;"/>
   </g>
  </g>
 </g>
 <defs>
  <clipPath id="pe2a917fd75">
   <rect height="283.51309" width="567.02618" x="69.46582" y="25.196413"/>
  </clipPath>
 </defs>
</svg>
